<svg width="17" height="20" viewBox="-1 0 17 20" fill="none" xmlns="http://www.w3.org/2000/svg">
  <g fill="#000000" transform="translate(-1, 1)">
    <path d="M15.7688 7.43148C15.6181 5.82699 14.533 4.42002 13.5896 3.19275C12.6763 2.00134 12.0042 0.779977 11.6877 0.163469C11.5882 -0.0281121 11.326 -0.0580371 11.1873 0.109587C9.834 1.74701 8.54089 3.53103 7.6819 5.45585C7.58544 5.67437 7.50105 5.89589 7.42871 6.1174C7.70902 6.55443 8.02852 7.02143 8.38117 7.48241L8.4083 7.51534C9.36377 8.76062 10.5183 10.2693 10.9432 12.0355C11.1211 12.0595 11.3019 12.0714 11.4828 12.0714C13.9303 12.0714 15.9949 9.87127 15.7688 7.43148Z"/>
    <path d="M9.2642 13.2185C9.10355 11.3651 7.93017 9.74343 6.91456 8.32587C5.92766 6.95106 5.2047 5.54265 4.86328 4.8325C4.75713 4.60997 4.47311 4.57644 4.32393 4.76849C2.86653 6.65542 1.47229 8.71604 0.542678 10.9384C-0.125769 12.5418 -0.231932 14.2183 0.53694 15.8218C1.32589 17.4649 2.89228 18.5715 4.64519 18.5715C7.28458 18.5715 9.51377 16.0352 9.267 13.2184L9.2642 13.2185ZM4.6424 16.4407C3.68131 16.4407 2.79198 15.834 2.32433 14.8555C1.9026 13.9776 1.90548 13.0234 2.32433 11.9474C2.37884 14.0172 3.97108 15.6786 5.93335 15.6786C6.10548 15.6786 6.27189 15.6603 6.43828 15.6359C5.93908 16.145 5.29645 16.4377 4.64809 16.4377L4.6424 16.4407Z"/>
  </g>
  <g fill="#D4B1A2">
    <path d="M15.7688 7.43148C15.6181 5.82699 14.533 4.42002 13.5896 3.19275C12.6763 2.00134 12.0042 0.779977 11.6877 0.163469C11.5882 -0.0281121 11.326 -0.0580371 11.1873 0.109587C9.834 1.74701 8.54089 3.53103 7.6819 5.45585C7.58544 5.67437 7.50105 5.89589 7.42871 6.1174C7.70902 6.55443 8.02852 7.02143 8.38117 7.48241L8.4083 7.51534C9.36377 8.76062 10.5183 10.2693 10.9432 12.0355C11.1211 12.0595 11.3019 12.0714 11.4828 12.0714C13.9303 12.0714 15.9949 9.87127 15.7688 7.43148Z"/>
    <path d="M9.2642 13.2185C9.10355 11.3651 7.93017 9.74343 6.91456 8.32587C5.92766 6.95106 5.2047 5.54265 4.86328 4.8325C4.75713 4.60997 4.47311 4.57644 4.32393 4.76849C2.86653 6.65542 1.47229 8.71604 0.542678 10.9384C-0.125769 12.5418 -0.231932 14.2183 0.53694 15.8218C1.32589 17.4649 2.89228 18.5715 4.64519 18.5715C7.28458 18.5715 9.51377 16.0352 9.267 13.2184L9.2642 13.2185ZM4.6424 16.4407C3.68131 16.4407 2.79198 15.834 2.32433 14.8555C1.9026 13.9776 1.90548 13.0234 2.32433 11.9474C2.37884 14.0172 3.97108 15.6786 5.93335 15.6786C6.10548 15.6786 6.27189 15.6603 6.43828 15.6359C5.93908 16.145 5.29645 16.4377 4.64809 16.4377L4.6424 16.4407Z"/>
  </g>
</svg>
