<svg width="46" height="48" viewBox="-1 0 46 48" fill="none" xmlns="http://www.w3.org/2000/svg">
  <g fill="#000000" transform="translate(-1, 2)">
    <path d="M37.6891 42.1057C37.8607 41.8969 38.0865 41.7109 38.2856 41.5239L41.6952 38.3357C42.4162 37.6623 43.3465 36.3862 44.4817 37.2137C45.7086 38.108 44.4606 39.1135 43.7828 39.7516L38.5869 44.6013C37.9774 45.1668 37.4764 45.9001 36.5604 46C36.0492 45.9688 35.7689 45.8033 35.4076 45.4833C33.5732 43.8582 31.6954 42.0641 29.9385 40.3684C29.3366 39.7875 27.9991 38.929 28 38.0836C28.0006 37.4717 28.5579 36.8893 29.2438 36.9237C30.1434 36.9687 30.8968 37.9849 31.4753 38.5201C32.7099 39.662 33.951 40.8284 35.1367 42.0132L35.1355 24.6614C35.1351 23.2437 34.6371 21.3635 36.4653 21C38.1575 21.3799 37.6902 23.0274 37.6897 24.3459L37.6891 42.1057Z"/>
    <path d="M44.6861 0.670404C44.4019 0.38373 44.0704 0.288172 43.6914 0.335951L35.8758 1.48265C35.5916 1.53043 35.3548 1.67376 35.1653 1.86488L13.8028 25.4677L9.7292 22.601C9.39763 22.3621 8.92396 22.4098 8.59239 22.6965L6.55561 24.751C6.22404 25.0855 6.22404 25.6588 6.55561 25.9933L10.9607 30.4367L5.22933 36.2658L3.14518 34.1635C2.81361 33.829 2.2452 33.829 1.91363 34.1635L0.255782 35.788C-0.0284203 36.0746 -0.0757874 36.5524 0.113681 36.8869L1.6768 39.3714C2.86097 41.2348 4.42409 42.8593 6.31877 44.0537L8.78186 45.6304C8.92396 45.726 9.11343 45.7738 9.25553 45.7738C9.49237 45.7738 9.7292 45.6782 9.8713 45.5349L11.4818 43.9104C11.8134 43.5759 11.8134 43.0026 11.4818 42.6681L9.39763 40.5659L15.1291 34.7846L19.5342 39.2281C19.7237 39.4192 19.9131 39.4669 20.15 39.4669C20.3868 39.4669 20.6236 39.3714 20.7657 39.2281L22.8025 37.1736C23.0867 36.8869 23.1341 36.4091 22.8973 36.0269L20.0552 31.9179L43.4546 10.3695C43.644 10.1784 43.7861 9.93953 43.8335 9.65285L44.9703 1.76932C45.0651 1.33931 44.923 0.957078 44.6861 0.670404Z"/>
  </g>
  <g fill="#D4B1A2">
    <path d="M37.6891 42.1057C37.8607 41.8969 38.0865 41.7109 38.2856 41.5239L41.6952 38.3357C42.4162 37.6623 43.3465 36.3862 44.4817 37.2137C45.7086 38.108 44.4606 39.1135 43.7828 39.7516L38.5869 44.6013C37.9774 45.1668 37.4764 45.9001 36.5604 46C36.0492 45.9688 35.7689 45.8033 35.4076 45.4833C33.5732 43.8582 31.6954 42.0641 29.9385 40.3684C29.3366 39.7875 27.9991 38.929 28 38.0836C28.0006 37.4717 28.5579 36.8893 29.2438 36.9237C30.1434 36.9687 30.8968 37.9849 31.4753 38.5201C32.7099 39.662 33.951 40.8284 35.1367 42.0132L35.1355 24.6614C35.1351 23.2437 34.6371 21.3635 36.4653 21C38.1575 21.3799 37.6902 23.0274 37.6897 24.3459L37.6891 42.1057Z"/>
    <path d="M44.6861 0.670404C44.4019 0.38373 44.0704 0.288172 43.6914 0.335951L35.8758 1.48265C35.5916 1.53043 35.3548 1.67376 35.1653 1.86488L13.8028 25.4677L9.7292 22.601C9.39763 22.3621 8.92396 22.4098 8.59239 22.6965L6.55561 24.751C6.22404 25.0855 6.22404 25.6588 6.55561 25.9933L10.9607 30.4367L5.22933 36.2658L3.14518 34.1635C2.81361 33.829 2.2452 33.829 1.91363 34.1635L0.255782 35.788C-0.0284203 36.0746 -0.0757874 36.5524 0.113681 36.8869L1.6768 39.3714C2.86097 41.2348 4.42409 42.8593 6.31877 44.0537L8.78186 45.6304C8.92396 45.726 9.11343 45.7738 9.25553 45.7738C9.49237 45.7738 9.7292 45.6782 9.8713 45.5349L11.4818 43.9104C11.8134 43.5759 11.8134 43.0026 11.4818 42.6681L9.39763 40.5659L15.1291 34.7846L19.5342 39.2281C19.7237 39.4192 19.9131 39.4669 20.15 39.4669C20.3868 39.4669 20.6236 39.3714 20.7657 39.2281L22.8025 37.1736C23.0867 36.8869 23.1341 36.4091 22.8973 36.0269L20.0552 31.9179L43.4546 10.3695C43.644 10.1784 43.7861 9.93953 43.8335 9.65285L44.9703 1.76932C45.0651 1.33931 44.923 0.957078 44.6861 0.670404Z"/>
  </g>
</svg>
