<svg width="48" height="45" viewBox="-1 0 48 45" fill="none" xmlns="http://www.w3.org/2000/svg">
  <g fill="#000000" transform="translate(-1, 2)" stroke="#000000">
    <path fill-rule="evenodd" clip-rule="evenodd" d="M35.8645 32.9217C38.8836 29.9665 41.9077 26.5637 44.1727 23.0142C47.8036 17.3247 47.9487 10.4492 44.5423 5.49717C43.3229 3.73173 41.7459 2.31368 39.9403 1.3592C38.1348 0.404723 36.1522 -0.059009 34.155 0.00600426C32.2088 0.053354 30.3014 0.621742 28.5935 1.66328C26.8855 2.70481 25.427 4.18898 24.3408 5.99071C24.0495 6.4706 23.7685 6.96742 23.5 7.47697C23.2316 6.96742 22.9505 6.4706 22.6591 5.99071C21.573 4.18901 20.1145 2.70488 18.4065 1.66338C16.6985 0.62188 14.7911 0.0535197 12.845 0.00619082C10.8483 -0.0553787 8.86676 0.409888 7.06177 1.3641C5.25679 2.31832 3.67937 3.73451 2.45797 5.49735C-0.948712 10.4492 -0.803616 17.3247 2.82721 23.0142C9.43521 33.3695 22.5047 42.4771 23.0575 42.8593C23.1903 42.9513 23.3436 43 23.5 43C23.6563 43 23.8096 42.9513 23.9425 42.8593C24.251 42.646 28.4583 39.7148 33.2652 35.3657C33.235 34.985 33.258 34.573 33.2808 34.1648C33.2955 33.9006 33.3102 33.638 33.3102 33.3864L33.3109 14.2059C33.1837 14.3729 33.0268 14.5265 32.873 14.6771C32.8192 14.7297 32.7659 14.7819 32.7143 14.8342L29.3048 18.2774C29.2004 18.3827 29.0917 18.5015 28.9787 18.6251C28.3102 19.3559 27.4892 20.2536 26.5183 19.4892C25.3754 18.5895 26.3801 17.5855 27.0709 16.8953C27.1216 16.8445 27.1707 16.7955 27.2171 16.7483L32.413 11.5106C32.5401 11.3833 32.6624 11.2481 32.7848 11.1128C33.2495 10.5993 33.7145 10.0854 34.4396 9.99999C34.9507 10.0337 35.2311 10.2124 35.5923 10.558C37.4268 12.3132 39.3045 14.2508 41.0615 16.0822C41.2021 16.2287 41.3828 16.3916 41.5772 16.5668C42.2151 17.1418 43.0006 17.8499 43 18.5496C42.9993 19.2106 42.442 19.8396 41.7561 19.8024C41.0464 19.764 40.4276 19.0727 39.9139 18.4988C39.7766 18.3453 39.6467 18.2003 39.5246 18.0783C38.2901 16.8451 37.049 15.5853 35.8633 14.3057L35.8645 32.9217Z"/>
  </g>
  <g fill="#D4B1A2" stroke="#D4B1A2">
    <path fill-rule="evenodd" clip-rule="evenodd" d="M35.8645 32.9217C38.8836 29.9665 41.9077 26.5637 44.1727 23.0142C47.8036 17.3247 47.9487 10.4492 44.5423 5.49717C43.3229 3.73173 41.7459 2.31368 39.9403 1.3592C38.1348 0.404723 36.1522 -0.059009 34.155 0.00600426C32.2088 0.053354 30.3014 0.621742 28.5935 1.66328C26.8855 2.70481 25.427 4.18898 24.3408 5.99071C24.0495 6.4706 23.7685 6.96742 23.5 7.47697C23.2316 6.96742 22.9505 6.4706 22.6591 5.99071C21.573 4.18901 20.1145 2.70488 18.4065 1.66338C16.6985 0.62188 14.7911 0.0535197 12.845 0.00619082C10.8483 -0.0553787 8.86676 0.409888 7.06177 1.3641C5.25679 2.31832 3.67937 3.73451 2.45797 5.49735C-0.948712 10.4492 -0.803616 17.3247 2.82721 23.0142C9.43521 33.3695 22.5047 42.4771 23.0575 42.8593C23.1903 42.9513 23.3436 43 23.5 43C23.6563 43 23.8096 42.9513 23.9425 42.8593C24.251 42.646 28.4583 39.7148 33.2652 35.3657C33.235 34.985 33.258 34.573 33.2808 34.1648C33.2955 33.9006 33.3102 33.638 33.3102 33.3864L33.3109 14.2059C33.1837 14.3729 33.0268 14.5265 32.873 14.6771C32.8192 14.7297 32.7659 14.7819 32.7143 14.8342L29.3048 18.2774C29.2004 18.3827 29.0917 18.5015 28.9787 18.6251C28.3102 19.3559 27.4892 20.2536 26.5183 19.4892C25.3754 18.5895 26.3801 17.5855 27.0709 16.8953C27.1216 16.8445 27.1707 16.7955 27.2171 16.7483L32.413 11.5106C32.5401 11.3833 32.6624 11.2481 32.7848 11.1128C33.2495 10.5993 33.7145 10.0854 34.4396 9.99999C34.9507 10.0337 35.2311 10.2124 35.5923 10.558C37.4268 12.3132 39.3045 14.2508 41.0615 16.0822C41.2021 16.2287 41.3828 16.3916 41.5772 16.5668C42.2151 17.1418 43.0006 17.8499 43 18.5496C42.9993 19.2106 42.442 19.8396 41.7561 19.8024C41.0464 19.764 40.4276 19.0727 39.9139 18.4988C39.7766 18.3453 39.6467 18.2003 39.5246 18.0783C38.2901 16.8451 37.049 15.5853 35.8633 14.3057L35.8645 32.9217Z"/>
  </g>
</svg>
