<svg width="41" height="41" viewBox="-2 0 41 41" fill="none" xmlns="http://www.w3.org/2000/svg">
  <g fill="#000000" transform="translate(-1, 2)" stroke="#000000">
    <path d="M33.2563 3.92582C33.1368 4.08264 32.9797 4.22244 32.8411 4.36294L30.4679 6.75822C29.9661 7.26412 29.3186 8.22285 28.5285 7.60119C27.6745 6.92929 28.5432 6.17383 29.0149 5.69446L32.6314 2.05088C33.0556 1.62596 33.4043 1.07506 34.0419 1C34.3977 1.02344 34.5928 1.14779 34.8442 1.38816C36.121 2.60916 37.428 3.95708 38.6509 5.23107C39.0698 5.66749 40.0007 6.31243 40.0001 6.94757C39.9997 7.40736 39.6118 7.8449 39.1344 7.81905C38.5082 7.78522 37.9839 7.02177 37.5812 6.6197C36.7219 5.76179 35.8581 4.88541 35.0328 3.9953L35.0337 17.0318C35.0339 18.0969 35.3805 19.5095 34.1081 19.7826C32.9303 19.4971 33.2555 18.2594 33.2558 17.2688L33.2563 3.92582Z" stroke-width="2"/>
    <path fill-rule="evenodd" clip-rule="evenodd" d="M28.6994 31.1714C28.6994 32.6838 27.5541 33.9522 26.0243 34.2803L26.041 34.9787C26.0514 35.4036 25.7191 35.757 25.2969 35.7654C25.2907 35.7654 25.2844 35.7654 25.2781 35.7654C24.8643 35.7654 24.5257 35.433 24.5153 35.0144L24.4986 34.2951C23.6041 34.1205 23.0252 33.6367 22.4713 33.1108C22.1662 32.8205 22.1515 32.3325 22.4421 32.0233C22.7305 31.7141 23.2132 31.6994 23.5205 31.9918C24.1642 32.606 24.5216 32.8227 25.2468 32.8227C26.3085 32.8227 27.1716 32.0822 27.1716 31.1714C27.1716 30.2607 26.3085 29.5181 25.2468 29.5181C23.3428 29.5181 21.7942 28.0878 21.7942 26.3272C21.7942 24.8148 22.9395 23.5443 24.4693 23.2183L24.4505 22.4316C24.4401 22.0067 24.7745 21.6533 25.1966 21.6428C25.6146 21.6323 25.9678 21.9689 25.9762 22.3938L25.9971 23.212C26.6178 23.3382 27.1905 23.6222 27.6565 24.0408C27.97 24.3247 27.9972 24.8106 27.7171 25.1282C27.4371 25.4438 26.9543 25.4732 26.6387 25.1892C26.2709 24.859 25.7755 24.676 25.2468 24.676C24.183 24.676 23.3198 25.4164 23.3198 26.3272C23.3198 27.238 24.183 27.9784 25.2468 27.9784C27.1507 27.9784 28.6994 29.4109 28.6994 31.1714ZM0 5.71761C0 6.61578 1.26652 7.61071 3.38992 8.37216C5.82264 9.24719 9.07463 9.72888 12.544 9.72888C16.0133 9.72888 19.2632 9.24719 21.6959 8.37216C23.8193 7.61071 25.0879 6.61578 25.0879 5.71761C25.0879 4.81733 23.8193 3.8245 21.6959 3.06095C19.2632 2.18591 16.0133 1.70422 12.544 1.70422C9.07463 1.70422 5.82264 2.18591 3.38992 3.06095C1.26652 3.8245 0 4.81733 0 5.71761ZM0 12.924V8.34271C0.716858 8.89592 1.67824 9.39233 2.87788 9.82354C5.47153 10.7554 8.90325 11.2686 12.544 11.2686C16.1826 11.2686 19.6164 10.7554 22.2101 9.82354C23.4076 9.39233 24.3711 8.89592 25.0879 8.34271V12.924C25.0879 13.8243 23.8193 14.8171 21.6959 15.5807C19.2632 16.4557 16.0133 16.9374 12.544 16.9374C9.07463 16.9374 5.82264 16.4557 3.38992 15.5807C1.26652 14.8171 0 13.8243 0 12.924ZM0 20.1325C0 21.0328 1.26652 22.0256 3.38992 22.7892C5.82264 23.6621 9.07463 24.1459 12.544 24.1459C13.5451 24.1459 14.542 24.1039 15.5096 24.0218C17.2276 20.406 20.8683 17.8903 25.0879 17.8293V15.5512C24.369 16.1023 23.4076 16.6009 22.208 17.0321C19.6164 17.9639 16.1826 18.4771 12.544 18.4771C8.90325 18.4771 5.47153 17.9639 2.87788 17.0321C1.67824 16.6009 0.716858 16.1023 0 15.5512V20.1325ZM0 27.3411V22.7576C0.716858 23.3109 1.67824 23.8094 2.87788 24.2406C5.47153 25.1724 8.90325 25.6856 12.544 25.6856C13.3361 25.6856 14.1261 25.6604 14.9056 25.6099C14.6151 26.5922 14.4605 27.6313 14.4605 28.7062C14.4605 29.5939 14.5671 30.4563 14.7656 31.2829C14.0341 31.3292 13.2901 31.3544 12.544 31.3544C9.07463 31.3544 5.82264 30.8707 3.38992 29.9977C1.26652 29.2342 0 28.2413 0 27.3411ZM18.8494 37.4587C17.261 36.2744 16.007 34.6632 15.2526 32.7953C14.3622 32.8584 13.4531 32.8942 12.544 32.8942C8.90325 32.8942 5.47153 32.3788 2.87788 31.447C1.67824 31.0179 0.716858 30.5194 0 29.9662V34.03C0 34.9303 1.26652 35.9231 3.38992 36.6867C5.82264 37.5617 9.07463 38.0434 12.544 38.0434C14.7907 38.0434 16.9371 37.8415 18.8494 37.4587ZM34.5053 28.7062C34.5053 23.5549 30.3526 19.3669 25.2468 19.3669C20.141 19.3669 15.9861 23.5549 15.9861 28.7062C15.9861 33.8533 20.141 38.0434 25.2468 38.0434C30.3526 38.0434 34.5053 33.8533 34.5053 28.7062Z"/>
    <circle cx="25.055" cy="29.3876" r="8.7374"/>
  </g>
  <g fill="#D4B1A2" stroke="#D4B1A2">
    <path d="M33.2563 3.92582C33.1368 4.08264 32.9797 4.22244 32.8411 4.36294L30.4679 6.75822C29.9661 7.26412 29.3186 8.22285 28.5285 7.60119C27.6745 6.92929 28.5432 6.17383 29.0149 5.69446L32.6314 2.05088C33.0556 1.62596 33.4043 1.07506 34.0419 1C34.3977 1.02344 34.5928 1.14779 34.8442 1.38816C36.121 2.60916 37.428 3.95708 38.6509 5.23107C39.0698 5.66749 40.0007 6.31243 40.0001 6.94757C39.9997 7.40736 39.6118 7.8449 39.1344 7.81905C38.5082 7.78522 37.9839 7.02177 37.5812 6.6197C36.7219 5.76179 35.8581 4.88541 35.0328 3.9953L35.0337 17.0318C35.0339 18.0969 35.3805 19.5095 34.1081 19.7826C32.9303 19.4971 33.2555 18.2594 33.2558 17.2688L33.2563 3.92582Z" stroke-width="2"/>
    <path fill-rule="evenodd" clip-rule="evenodd" d="M28.6994 31.1714C28.6994 32.6838 27.5541 33.9522 26.0243 34.2803L26.041 34.9787C26.0514 35.4036 25.7191 35.757 25.2969 35.7654C25.2907 35.7654 25.2844 35.7654 25.2781 35.7654C24.8643 35.7654 24.5257 35.433 24.5153 35.0144L24.4986 34.2951C23.6041 34.1205 23.0252 33.6367 22.4713 33.1108C22.1662 32.8205 22.1515 32.3325 22.4421 32.0233C22.7305 31.7141 23.2132 31.6994 23.5205 31.9918C24.1642 32.606 24.5216 32.8227 25.2468 32.8227C26.3085 32.8227 27.1716 32.0822 27.1716 31.1714C27.1716 30.2607 26.3085 29.5181 25.2468 29.5181C23.3428 29.5181 21.7942 28.0878 21.7942 26.3272C21.7942 24.8148 22.9395 23.5443 24.4693 23.2183L24.4505 22.4316C24.4401 22.0067 24.7745 21.6533 25.1966 21.6428C25.6146 21.6323 25.9678 21.9689 25.9762 22.3938L25.9971 23.212C26.6178 23.3382 27.1905 23.6222 27.6565 24.0408C27.97 24.3247 27.9972 24.8106 27.7171 25.1282C27.4371 25.4438 26.9543 25.4732 26.6387 25.1892C26.2709 24.859 25.7755 24.676 25.2468 24.676C24.183 24.676 23.3198 25.4164 23.3198 26.3272C23.3198 27.238 24.183 27.9784 25.2468 27.9784C27.1507 27.9784 28.6994 29.4109 28.6994 31.1714ZM0 5.71761C0 6.61578 1.26652 7.61071 3.38992 8.37216C5.82264 9.24719 9.07463 9.72888 12.544 9.72888C16.0133 9.72888 19.2632 9.24719 21.6959 8.37216C23.8193 7.61071 25.0879 6.61578 25.0879 5.71761C25.0879 4.81733 23.8193 3.8245 21.6959 3.06095C19.2632 2.18591 16.0133 1.70422 12.544 1.70422C9.07463 1.70422 5.82264 2.18591 3.38992 3.06095C1.26652 3.8245 0 4.81733 0 5.71761ZM0 12.924V8.34271C0.716858 8.89592 1.67824 9.39233 2.87788 9.82354C5.47153 10.7554 8.90325 11.2686 12.544 11.2686C16.1826 11.2686 19.6164 10.7554 22.2101 9.82354C23.4076 9.39233 24.3711 8.89592 25.0879 8.34271V12.924C25.0879 13.8243 23.8193 14.8171 21.6959 15.5807C19.2632 16.4557 16.0133 16.9374 12.544 16.9374C9.07463 16.9374 5.82264 16.4557 3.38992 15.5807C1.26652 14.8171 0 13.8243 0 12.924ZM0 20.1325C0 21.0328 1.26652 22.0256 3.38992 22.7892C5.82264 23.6621 9.07463 24.1459 12.544 24.1459C13.5451 24.1459 14.542 24.1039 15.5096 24.0218C17.2276 20.406 20.8683 17.8903 25.0879 17.8293V15.5512C24.369 16.1023 23.4076 16.6009 22.208 17.0321C19.6164 17.9639 16.1826 18.4771 12.544 18.4771C8.90325 18.4771 5.47153 17.9639 2.87788 17.0321C1.67824 16.6009 0.716858 16.1023 0 15.5512V20.1325ZM0 27.3411V22.7576C0.716858 23.3109 1.67824 23.8094 2.87788 24.2406C5.47153 25.1724 8.90325 25.6856 12.544 25.6856C13.3361 25.6856 14.1261 25.6604 14.9056 25.6099C14.6151 26.5922 14.4605 27.6313 14.4605 28.7062C14.4605 29.5939 14.5671 30.4563 14.7656 31.2829C14.0341 31.3292 13.2901 31.3544 12.544 31.3544C9.07463 31.3544 5.82264 30.8707 3.38992 29.9977C1.26652 29.2342 0 28.2413 0 27.3411ZM18.8494 37.4587C17.261 36.2744 16.007 34.6632 15.2526 32.7953C14.3622 32.8584 13.4531 32.8942 12.544 32.8942C8.90325 32.8942 5.47153 32.3788 2.87788 31.447C1.67824 31.0179 0.716858 30.5194 0 29.9662V34.03C0 34.9303 1.26652 35.9231 3.38992 36.6867C5.82264 37.5617 9.07463 38.0434 12.544 38.0434C14.7907 38.0434 16.9371 37.8415 18.8494 37.4587ZM34.5053 28.7062C34.5053 23.5549 30.3526 19.3669 25.2468 19.3669C20.141 19.3669 15.9861 23.5549 15.9861 28.7062C15.9861 33.8533 20.141 38.0434 25.2468 38.0434C30.3526 38.0434 34.5053 33.8533 34.5053 28.7062Z"/>
    <circle cx="25.055" cy="29.3876" r="8.7374"/>
  </g>
</svg>
