<svg width="36" height="43" viewBox="0 0 36 43" fill="none" xmlns="http://www.w3.org/2000/svg">
  <g fill="#000000" transform="translate(-1, 2)" stroke="#000000">
    <path d="M34.8396 0.175189C34.6943 0.030116 34.5248 -0.0182416 34.3312 0.00593719L30.3365 0.586229C30.1913 0.610408 30.0702 0.682944 29.9734 0.77966L19.0548 12.724L16.9727 11.2733C16.8032 11.1524 16.5611 11.1766 16.3917 11.3216L15.3506 12.3613C15.1812 12.5306 15.1812 12.8207 15.3506 12.99L17.6022 15.2386L14.6728 18.1884L13.6075 17.1245C13.4381 16.9553 13.1475 16.9553 12.9781 17.1245L12.1307 17.9466C11.9855 18.0917 11.9613 18.3335 12.0581 18.5027L12.857 19.76C13.4623 20.703 14.2612 21.5251 15.2296 22.1296L16.4885 22.9275C16.5611 22.9758 16.658 23 16.7306 23C16.8517 23 16.9727 22.9516 17.0453 22.8791L17.8685 22.057C18.0379 21.8878 18.0379 21.5976 17.8685 21.4284L16.8032 20.3645L19.7326 17.4389L21.9841 19.6875C22.081 19.7842 22.1778 19.8084 22.2989 19.8084C22.4199 19.8084 22.541 19.76 22.6136 19.6875L23.6546 18.6478C23.7999 18.5027 23.8241 18.261 23.703 18.0675L22.2505 15.9881L34.2101 5.08349C34.307 4.98678 34.3796 4.86588 34.4038 4.72081L34.9848 0.731302C35.0333 0.513692 34.9606 0.320262 34.8396 0.175189Z"/>
    <path d="M30.4404 19.0251C30.3597 19.1336 30.2534 19.2304 30.1597 19.3276L28.5552 20.9854C28.2159 21.3356 27.7781 21.9992 27.2439 21.5689C26.6666 21.1038 27.2539 20.581 27.5728 20.2492L30.0179 17.7273C30.3047 17.4332 30.5405 17.0519 30.9716 17C31.2121 17.0162 31.344 17.1023 31.5141 17.2687C32.3773 18.1138 33.261 19.0467 34.0878 19.9285C34.371 20.2305 35.0004 20.6769 35 21.1165C34.9997 21.4347 34.7374 21.7376 34.4147 21.7197C33.9913 21.6963 33.6368 21.1679 33.3646 20.8896C32.7836 20.2958 32.1995 19.6892 31.6416 19.0731L31.6421 28.0961C31.6423 28.8333 31.8767 29.811 31.0163 30C30.22 29.8024 30.4399 28.9457 30.4401 28.2601L30.4404 19.0251Z" stroke-width="1.5"/>
    <path d="M17.4404 29.0251C17.3597 29.1336 17.2534 29.2304 17.1597 29.3276L15.5552 30.9854C15.2159 31.3356 14.7781 31.9992 14.2439 31.5689C13.6666 31.1038 14.2539 30.581 14.5728 30.2492L17.0179 27.7273C17.3047 27.4332 17.5405 27.0519 17.9716 27C18.2121 27.0162 18.344 27.1023 18.5141 27.2687C19.3773 28.1138 20.261 29.0467 21.0878 29.9285C21.371 30.2305 22.0004 30.6769 22 31.1165C21.9997 31.4347 21.7374 31.7376 21.4147 31.7197C20.9913 31.6963 20.6368 31.1679 20.3646 30.8896C19.7836 30.2958 19.1995 29.6892 18.6416 29.0731L18.6421 38.0961C18.6423 38.8333 18.8767 39.811 18.0163 40C17.22 39.8024 17.4399 38.9457 17.4401 38.2601L17.4404 29.0251Z" stroke-width="1.5"/>
    <path d="M4.44043 19.0251C4.35966 19.1336 4.25341 19.2304 4.15969 19.3276L2.5552 20.9854C2.21588 21.3356 1.7781 21.9992 1.24392 21.5689C0.666552 21.1038 1.25385 20.581 1.57279 20.2492L4.01791 17.7273C4.30473 17.4332 4.54053 17.0519 4.97158 17C5.21213 17.0162 5.34405 17.1023 5.51405 17.2687C6.37732 18.1138 7.26097 19.0467 8.08778 19.9285C8.37101 20.2305 9.00041 20.6769 9 21.1165C8.99971 21.4347 8.73744 21.7376 8.41467 21.7197C7.99134 21.6963 7.63681 21.1679 7.36456 20.8896C6.78359 20.2958 6.19954 19.6892 5.64156 19.0731L5.64214 28.0961C5.64232 28.8333 5.87665 29.811 5.01635 30C4.22002 29.8024 4.4399 28.9457 4.44013 28.2601L4.44043 19.0251Z" stroke-width="1.5"/>
  </g>
  <g fill="#D4B1A2" stroke="#D4B1A2">
    <path d="M34.8396 0.175189C34.6943 0.030116 34.5248 -0.0182416 34.3312 0.00593719L30.3365 0.586229C30.1913 0.610408 30.0702 0.682944 29.9734 0.77966L19.0548 12.724L16.9727 11.2733C16.8032 11.1524 16.5611 11.1766 16.3917 11.3216L15.3506 12.3613C15.1812 12.5306 15.1812 12.8207 15.3506 12.99L17.6022 15.2386L14.6728 18.1884L13.6075 17.1245C13.4381 16.9553 13.1475 16.9553 12.9781 17.1245L12.1307 17.9466C11.9855 18.0917 11.9613 18.3335 12.0581 18.5027L12.857 19.76C13.4623 20.703 14.2612 21.5251 15.2296 22.1296L16.4885 22.9275C16.5611 22.9758 16.658 23 16.7306 23C16.8517 23 16.9727 22.9516 17.0453 22.8791L17.8685 22.057C18.0379 21.8878 18.0379 21.5976 17.8685 21.4284L16.8032 20.3645L19.7326 17.4389L21.9841 19.6875C22.081 19.7842 22.1778 19.8084 22.2989 19.8084C22.4199 19.8084 22.541 19.76 22.6136 19.6875L23.6546 18.6478C23.7999 18.5027 23.8241 18.261 23.703 18.0675L22.2505 15.9881L34.2101 5.08349C34.307 4.98678 34.3796 4.86588 34.4038 4.72081L34.9848 0.731302C35.0333 0.513692 34.9606 0.320262 34.8396 0.175189Z"/>
    <path d="M30.4404 19.0251C30.3597 19.1336 30.2534 19.2304 30.1597 19.3276L28.5552 20.9854C28.2159 21.3356 27.7781 21.9992 27.2439 21.5689C26.6666 21.1038 27.2539 20.581 27.5728 20.2492L30.0179 17.7273C30.3047 17.4332 30.5405 17.0519 30.9716 17C31.2121 17.0162 31.344 17.1023 31.5141 17.2687C32.3773 18.1138 33.261 19.0467 34.0878 19.9285C34.371 20.2305 35.0004 20.6769 35 21.1165C34.9997 21.4347 34.7374 21.7376 34.4147 21.7197C33.9913 21.6963 33.6368 21.1679 33.3646 20.8896C32.7836 20.2958 32.1995 19.6892 31.6416 19.0731L31.6421 28.0961C31.6423 28.8333 31.8767 29.811 31.0163 30C30.22 29.8024 30.4399 28.9457 30.4401 28.2601L30.4404 19.0251Z" stroke-width="1.5"/>
    <path d="M17.4404 29.0251C17.3597 29.1336 17.2534 29.2304 17.1597 29.3276L15.5552 30.9854C15.2159 31.3356 14.7781 31.9992 14.2439 31.5689C13.6666 31.1038 14.2539 30.581 14.5728 30.2492L17.0179 27.7273C17.3047 27.4332 17.5405 27.0519 17.9716 27C18.2121 27.0162 18.344 27.1023 18.5141 27.2687C19.3773 28.1138 20.261 29.0467 21.0878 29.9285C21.371 30.2305 22.0004 30.6769 22 31.1165C21.9997 31.4347 21.7374 31.7376 21.4147 31.7197C20.9913 31.6963 20.6368 31.1679 20.3646 30.8896C19.7836 30.2958 19.1995 29.6892 18.6416 29.0731L18.6421 38.0961C18.6423 38.8333 18.8767 39.811 18.0163 40C17.22 39.8024 17.4399 38.9457 17.4401 38.2601L17.4404 29.0251Z" stroke-width="1.5"/>
    <path d="M4.44043 19.0251C4.35966 19.1336 4.25341 19.2304 4.15969 19.3276L2.5552 20.9854C2.21588 21.3356 1.7781 21.9992 1.24392 21.5689C0.666552 21.1038 1.25385 20.581 1.57279 20.2492L4.01791 17.7273C4.30473 17.4332 4.54053 17.0519 4.97158 17C5.21213 17.0162 5.34405 17.1023 5.51405 17.2687C6.37732 18.1138 7.26097 19.0467 8.08778 19.9285C8.37101 20.2305 9.00041 20.6769 9 21.1165C8.99971 21.4347 8.73744 21.7376 8.41467 21.7197C7.99134 21.6963 7.63681 21.1679 7.36456 20.8896C6.78359 20.2958 6.19954 19.6892 5.64156 19.0731L5.64214 28.0961C5.64232 28.8333 5.87665 29.811 5.01635 30C4.22002 29.8024 4.4399 28.9457 4.44013 28.2601L4.44043 19.0251Z" stroke-width="1.5"/>
  </g>
</svg>
