<svg width="70" height="59" viewBox="-1 0 70 59" xmlns="http://www.w3.org/2000/svg">
  <g fill="#000000" transform="translate(-2, 2)">
    <path d="M49.5789 46.7803C45.2607 50.4507 39.791 52.3939 34.1774 52.3939C21.0069 52.3939 10.2834 41.6704 10.2834 28.5V26.4848H14.0978C14.8175 26.4848 15.4652 26.125 15.7531 25.4773C16.113 24.9015 16.041 24.1098 15.6811 23.5341L9.56373 14.106C8.84403 13.0265 7.04479 13.0265 6.39706 14.106L0.279634 23.5341C-0.0802146 24.1818 -0.0802147 24.9015 0.207664 25.4773C0.567513 26.053 1.21524 26.4848 1.86297 26.4848H5.67736V28.5C5.67736 44.1894 18.488 57 34.1774 57C40.9425 57 47.4198 54.625 52.6016 50.2348C53.6092 49.4432 53.6811 47.9318 52.8895 46.9962C52.0258 46.0606 50.5865 45.9167 49.5789 46.7803Z"/>
    <path d="M68.1471 31.5227C67.7872 30.947 67.1395 30.5152 66.4918 30.5152H62.6774V28.5C62.6774 12.8106 49.8668 0 34.1774 0C27.4122 0 20.935 2.375 15.7531 6.76515C14.7456 7.55682 14.6736 9.06818 15.4653 10.0038C16.2569 11.0114 17.7683 11.0833 18.7039 10.2917C23.0221 6.62121 28.4918 4.67803 34.1054 4.67803C47.2759 4.67803 57.9994 15.4015 57.9994 28.572V30.5871H54.185C53.4653 30.5871 52.8175 30.947 52.5297 31.5947C52.1698 32.1705 52.2418 32.9621 52.6016 33.5379L58.791 42.8939C59.1509 43.4697 59.7266 43.7576 60.3744 43.7576C61.0221 43.7576 61.5978 43.3977 61.9577 42.8939L68.0751 33.3939C68.435 32.8182 68.435 32.0985 68.1471 31.5227Z"/>
    <path d="M37.488 15.8334H30.9388C30.435 15.8334 30.0032 16.2652 30.0032 16.769V24.2538H22.4463C21.9426 24.2538 21.5107 24.6856 21.5107 25.1894V31.7387C21.5107 32.2425 21.9426 32.6743 22.4463 32.6743H29.9312V40.1591C29.9312 40.6629 30.363 41.0947 30.8668 41.0947H37.416C37.9198 41.0947 38.3516 40.6629 38.3516 40.1591V32.7463H45.8365C46.3403 32.7463 46.7721 32.3144 46.7721 31.8106V25.2614C46.7721 24.7576 46.3403 24.3258 45.8365 24.3258H38.4236V16.769C38.4236 16.2652 37.9918 15.8334 37.488 15.8334Z"/>
  </g>
  <g fill="#D4B1A2">
    <path d="M49.5789 46.7803C45.2607 50.4507 39.791 52.3939 34.1774 52.3939C21.0069 52.3939 10.2834 41.6704 10.2834 28.5V26.4848H14.0978C14.8175 26.4848 15.4652 26.125 15.7531 25.4773C16.113 24.9015 16.041 24.1098 15.6811 23.5341L9.56373 14.106C8.84403 13.0265 7.04479 13.0265 6.39706 14.106L0.279634 23.5341C-0.0802146 24.1818 -0.0802147 24.9015 0.207664 25.4773C0.567513 26.053 1.21524 26.4848 1.86297 26.4848H5.67736V28.5C5.67736 44.1894 18.488 57 34.1774 57C40.9425 57 47.4198 54.625 52.6016 50.2348C53.6092 49.4432 53.6811 47.9318 52.8895 46.9962C52.0258 46.0606 50.5865 45.9167 49.5789 46.7803Z"/>
    <path d="M68.1471 31.5227C67.7872 30.947 67.1395 30.5152 66.4918 30.5152H62.6774V28.5C62.6774 12.8106 49.8668 0 34.1774 0C27.4122 0 20.935 2.375 15.7531 6.76515C14.7456 7.55682 14.6736 9.06818 15.4653 10.0038C16.2569 11.0114 17.7683 11.0833 18.7039 10.2917C23.0221 6.62121 28.4918 4.67803 34.1054 4.67803C47.2759 4.67803 57.9994 15.4015 57.9994 28.572V30.5871H54.185C53.4653 30.5871 52.8175 30.947 52.5297 31.5947C52.1698 32.1705 52.2418 32.9621 52.6016 33.5379L58.791 42.8939C59.1509 43.4697 59.7266 43.7576 60.3744 43.7576C61.0221 43.7576 61.5978 43.3977 61.9577 42.8939L68.0751 33.3939C68.435 32.8182 68.435 32.0985 68.1471 31.5227Z"/>
    <path d="M37.488 15.8334H30.9388C30.435 15.8334 30.0032 16.2652 30.0032 16.769V24.2538H22.4463C21.9426 24.2538 21.5107 24.6856 21.5107 25.1894V31.7387C21.5107 32.2425 21.9426 32.6743 22.4463 32.6743H29.9312V40.1591C29.9312 40.6629 30.363 41.0947 30.8668 41.0947H37.416C37.9198 41.0947 38.3516 40.6629 38.3516 40.1591V32.7463H45.8365C46.3403 32.7463 46.7721 32.3144 46.7721 31.8106V25.2614C46.7721 24.7576 46.3403 24.3258 45.8365 24.3258H38.4236V16.769C38.4236 16.2652 37.9918 15.8334 37.488 15.8334Z"/>
  </g>
</svg>
