<svg width="34" height="45" viewBox="-1 0 34 45" fill="none" xmlns="http://www.w3.org/2000/svg">
  <g fill="#000000" transform="translate(-1, 2)" stroke="#000000">
    <path
      d="M9.47769 6.52357L9.47853 6.52316C12.0278 5.28632 14.3915 3.68987 16.5001 1.77894C18.6086 3.69007 20.9724 5.28649 23.5219 6.52321L23.5226 6.52355C26.0524 7.7491 28.7369 8.60763 31.5 9.07084V23.8033C31.5 28.3625 28.0954 32.666 24.1875 36.0423C20.9237 38.862 17.5923 40.7921 16.5 41.3946C15.4076 40.792 12.0762 38.862 8.81251 36.0423C4.90464 32.666 1.5 28.3625 1.5 23.8033V9.0709C4.26329 8.60772 6.94768 7.74914 9.47769 6.52357Z"
      stroke-width="3" fill="none"/>
    <path
      d="M25.2521 22.5235C26.3943 21.2808 27.0703 20.0348 26.9942 18.264C26.8805 15.6185 24.6663 13.3385 22.0534 13.0452C21.8326 13.0204 21.528 12.9658 21.3092 13.0305C20.1395 12.9855 18.7556 13.5801 17.9062 14.3681C17.5364 14.7113 16.81 15.4675 16.5058 15.8663C16.0548 15.4515 15.6846 14.9514 15.244 14.5235C13.0863 12.4285 9.50661 12.5757 7.49147 14.7879C5.7152 16.7378 5.50606 19.4306 6.96865 21.6084C7.34332 22.1663 7.84956 22.6166 8.31497 23.0971C9.29671 24.1107 10.3034 25.0985 11.2981 26.099L16.0248 30.8588C16.1796 31.0144 16.3203 31.1912 16.5058 31.3118C16.6378 31.2203 16.7527 31.0888 16.8647 30.9742C17.9505 29.863 24.1347 23.6026 25.2521 22.5235ZM25.2521 22.5235C25.0253 22.2483 24.7623 21.9962 24.5142 21.7401M25.2521 22.5235C25.0043 22.3381 24.5142 21.7401 24.5142 21.7401M24.5142 21.7401C25.6114 20.7497 26.1089 19.2243 25.8766 17.7701C25.505 15.4431 23.1129 13.7852 20.8102 14.1487C19.5948 14.3406 18.9766 14.7878 18.1772 15.6285L16.8556 17.0251C16.7364 17.1504 16.6075 17.2731 16.5058 17.413L15.1265 15.9398C14.0533 14.8002 13.1669 14.063 11.4317 14.1108C7.98567 14.2058 5.91964 17.9183 7.73941 20.8743C8.11838 21.4899 8.68092 21.9908 9.18924 22.4974L10.6406 23.9516C11.4421 24.752 12.2155 25.5863 13.0399 26.3631C13.6274 26.9248 14.1893 27.514 14.7666 28.0865L15.6584 28.9823C15.9436 29.2635 16.2344 29.5356 16.5058 29.8308C17.0667 29.2747 17.5983 28.6881 18.1537 28.1269C18.5488 27.7277 24.1721 22.1837 24.5142 21.7401Z"
      stroke-width="2" fill="none"/>
  </g>
  <g fill="#D4B1A2" stroke="#D4B1A2">
    <path
      d="M9.47769 6.52357L9.47853 6.52316C12.0278 5.28632 14.3915 3.68987 16.5001 1.77894C18.6086 3.69007 20.9724 5.28649 23.5219 6.52321L23.5226 6.52355C26.0524 7.7491 28.7369 8.60763 31.5 9.07084V23.8033C31.5 28.3625 28.0954 32.666 24.1875 36.0423C20.9237 38.862 17.5923 40.7921 16.5 41.3946C15.4076 40.792 12.0762 38.862 8.81251 36.0423C4.90464 32.666 1.5 28.3625 1.5 23.8033V9.0709C4.26329 8.60772 6.94768 7.74914 9.47769 6.52357Z"
      stroke-width="3" fill="none"/>
    <path
      d="M16.5058 15.8663C16.81 15.4675 17.5364 14.7113 17.9062 14.3681C18.7556 13.5801 20.1395 12.9855 21.3092 13.0305C21.528 12.9658 21.8326 13.0204 22.0534 13.0452C24.6663 13.3385 26.8805 15.6185 26.9942 18.264C27.0703 20.0348 26.3943 21.2808 25.2521 22.5235C25.0253 22.2483 24.7623 21.9962 24.5142 21.7401C25.6114 20.7497 26.1089 19.2243 25.8766 17.7701C25.505 15.4431 23.1129 13.7852 20.8102 14.1487C19.5948 14.3406 18.9766 14.7878 18.1772 15.6285L16.8556 17.0251C16.7364 17.1504 16.6075 17.2731 16.5058 17.413L15.1265 15.9398C14.0533 14.8002 13.1669 14.063 11.4317 14.1108C7.98567 14.2058 5.91964 17.9183 7.73941 20.8743C8.11838 21.4899 8.68092 21.9908 9.18924 22.4974L10.6406 23.9516C11.4421 24.752 12.2155 25.5863 13.0399 26.3631C13.6274 26.9248 14.1893 27.514 14.7666 28.0865L15.6584 28.9823C15.9436 29.2635 16.2344 29.5356 16.5058 29.8308C17.0667 29.2747 17.5983 28.6881 18.1537 28.1269C18.5488 27.7277 24.1721 22.1837 24.5142 21.7401C24.5142 21.7401 25.0043 22.3381 25.2521 22.5235C24.1347 23.6026 17.9505 29.863 16.8647 30.9742C16.7527 31.0888 16.6378 31.2203 16.5058 31.3118C16.3203 31.1912 16.1796 31.0144 16.0248 30.8588L11.2981 26.099C10.3034 25.0985 9.29671 24.1107 8.31497 23.0971C7.84956 22.6166 7.34332 22.1663 6.96865 21.6084C5.50606 19.4306 5.7152 16.7378 7.49147 14.7879C9.50661 12.5757 13.0863 12.4285 15.244 14.5235C15.6846 14.9514 16.0548 15.4515 16.5058 15.8663Z"/>
  </g>
</svg>
