<svg width="25" height="41" viewBox="-1 0 25 41" fill="none" xmlns="http://www.w3.org/2000/svg">
  <g fill="#000000" transform="translate(-1, 2)">
    <path d="M13.9142 38.7941C13.1332 39.5752 11.8668 39.5752 11.0858 38.7941L1.41421 29.1225C0.633165 28.3415 0.633165 27.0752 1.41421 26.2941L1.5063 26.202C2.28584 25.4225 3.5492 25.4208 4.33087 26.1982L11.0896 32.9202C11.8698 33.6961 13.1302 33.6961 13.9104 32.9202L20.6691 26.1982C21.4508 25.4208 22.7142 25.4225 23.4937 26.202L23.5858 26.2941C24.3668 27.0752 24.3668 28.3415 23.5858 29.1225L13.9142 38.7941ZM13.9142 26.3983C13.1332 27.1793 11.8668 27.1793 11.0858 26.3983L1.41421 16.7267C0.633165 15.9457 0.633165 14.6793 1.41421 13.8983L1.5063 13.8062C2.28584 13.0267 3.5492 13.0249 4.33087 13.8024L11.0896 20.5244C11.8698 21.3003 13.1302 21.3003 13.9104 20.5244L20.6691 13.8024C21.4508 13.0249 22.7142 13.0267 23.4937 13.8062L23.5858 13.8983C24.3668 14.6793 24.3668 15.9457 23.5858 16.7267L13.9142 26.3983ZM13.9142 14.0025C13.1332 14.7835 11.8668 14.7835 11.0858 14.0025L1.41421 4.33088C0.633165 3.54983 0.633165 2.2835 1.41421 1.50245L1.5063 1.41037C2.28584 0.630822 3.5492 0.6291 4.33087 1.40652L11.0896 8.12856C11.8698 8.90448 13.1302 8.90448 13.9104 8.12856L20.6691 1.40652C21.4508 0.629099 22.7142 0.630821 23.4937 1.41036L23.5858 1.50245C24.3668 2.2835 24.3668 3.54983 23.5858 4.33088L13.9142 14.0025Z"/>
  </g>
  <g fill="#D4B1A2">
    <path d="M13.9142 38.7941C13.1332 39.5752 11.8668 39.5752 11.0858 38.7941L1.41421 29.1225C0.633165 28.3415 0.633165 27.0752 1.41421 26.2941L1.5063 26.202C2.28584 25.4225 3.5492 25.4208 4.33087 26.1982L11.0896 32.9202C11.8698 33.6961 13.1302 33.6961 13.9104 32.9202L20.6691 26.1982C21.4508 25.4208 22.7142 25.4225 23.4937 26.202L23.5858 26.2941C24.3668 27.0752 24.3668 28.3415 23.5858 29.1225L13.9142 38.7941ZM13.9142 26.3983C13.1332 27.1793 11.8668 27.1793 11.0858 26.3983L1.41421 16.7267C0.633165 15.9457 0.633165 14.6793 1.41421 13.8983L1.5063 13.8062C2.28584 13.0267 3.5492 13.0249 4.33087 13.8024L11.0896 20.5244C11.8698 21.3003 13.1302 21.3003 13.9104 20.5244L20.6691 13.8024C21.4508 13.0249 22.7142 13.0267 23.4937 13.8062L23.5858 13.8983C24.3668 14.6793 24.3668 15.9457 23.5858 16.7267L13.9142 26.3983ZM13.9142 14.0025C13.1332 14.7835 11.8668 14.7835 11.0858 14.0025L1.41421 4.33088C0.633165 3.54983 0.633165 2.2835 1.41421 1.50245L1.5063 1.41037C2.28584 0.630822 3.5492 0.6291 4.33087 1.40652L11.0896 8.12856C11.8698 8.90448 13.1302 8.90448 13.9104 8.12856L20.6691 1.40652C21.4508 0.629099 22.7142 0.630821 23.4937 1.41036L23.5858 1.50245C24.3668 2.2835 24.3668 3.54983 23.5858 4.33088L13.9142 14.0025Z"/>
  </g>
</svg>
