<svg width="43" height="44" viewBox="-2 0 44 43" fill="none" xmlns="http://www.w3.org/2000/svg">
  <g fill="#000000" transform="translate(-1, 2)" stroke="#000000">
    <path d="M13 26V24C13 23.4477 13.4477 23 14 23H27.5C28.0523 23 28.5 23.4477 28.5 24V26C28.5 26.5523 28.0523 27 27.5 27H14C13.4477 27 13 26.5523 13 26Z"/>
    <path d="M13 19V17C13 16.4477 13.4477 16 14 16H27.5C28.0523 16 28.5 16.4477 28.5 17V19C28.5 19.5523 28.0523 20 27.5 20H14C13.4477 20 13 19.5523 13 19Z"/>
    <path d="M20.8333 41.5625C17.9514 41.5625 15.2431 41.0156 12.7083 39.9219C10.1736 38.8281 7.96875 37.3351 6.09375 35.4427C4.21875 33.5503 2.73438 31.3368 1.64063 28.8021C0.546875 26.2674 0 23.5764 0 20.7292C0 15.2778 1.80556 10.5903 5.41667 6.66667C8.77512 3.01758 12.8544 0.840123 17.6544 0.134308C18.2393 0.0483157 18.75 0.51244 18.75 1.10354V5.37673C18.75 5.87696 18.3793 6.29667 17.888 6.39107C14.6926 7.00514 12.0025 8.56402 9.81771 11.0677C7.43924 13.7934 6.25 17.0139 6.25 20.7292C6.25 24.7569 7.67361 28.1944 10.5208 31.0417C13.3681 33.8889 16.8056 35.3125 20.8333 35.3125C23.125 35.3125 25.2691 34.8264 27.2656 33.8542C28.997 33.011 30.4869 31.9068 31.7352 30.5414C32.0666 30.1789 32.6046 30.0764 33.03 30.3218L36.7502 32.468C37.263 32.7639 37.4095 33.4397 37.0381 33.9008C35.2695 36.0965 33.0797 37.8779 30.4688 39.2448C27.5174 40.7899 24.3056 41.5625 20.8333 41.5625ZM40.3368 28.2014C40.1161 28.7331 39.4751 28.9239 38.9764 28.6362L35.2134 26.4653C34.7898 26.2209 34.6088 25.7069 34.7533 25.2397C34.9327 24.6598 35.0757 24.0677 35.1823 23.4635C35.3385 22.5781 35.4167 21.6667 35.4167 20.7292C35.4167 17.0139 34.2274 13.7934 31.849 11.0677C29.6642 8.56402 26.9741 7.00514 23.7786 6.39107C23.2874 6.29667 22.9167 5.87696 22.9167 5.37673V1.10354C22.9167 0.51244 23.4274 0.0483158 24.0122 0.134308C28.8123 0.840123 32.8915 3.01758 36.25 6.66667C39.8611 10.5903 41.6667 15.2778 41.6667 20.7292C41.6667 22.2569 41.5278 23.7326 41.25 25.1562C41.0425 26.2197 40.7381 27.2348 40.3368 28.2014Z"/>
  </g>
  <g fill="#D4B1A2" stroke="#D4B1A2">
    <path d="M13 26V24C13 23.4477 13.4477 23 14 23H27.5C28.0523 23 28.5 23.4477 28.5 24V26C28.5 26.5523 28.0523 27 27.5 27H14C13.4477 27 13 26.5523 13 26Z"/>
    <path d="M13 19V17C13 16.4477 13.4477 16 14 16H27.5C28.0523 16 28.5 16.4477 28.5 17V19C28.5 19.5523 28.0523 20 27.5 20H14C13.4477 20 13 19.5523 13 19Z"/>
    <path d="M20.8333 41.5625C17.9514 41.5625 15.2431 41.0156 12.7083 39.9219C10.1736 38.8281 7.96875 37.3351 6.09375 35.4427C4.21875 33.5503 2.73438 31.3368 1.64063 28.8021C0.546875 26.2674 0 23.5764 0 20.7292C0 15.2778 1.80556 10.5903 5.41667 6.66667C8.77512 3.01758 12.8544 0.840123 17.6544 0.134308C18.2393 0.0483157 18.75 0.51244 18.75 1.10354V5.37673C18.75 5.87696 18.3793 6.29667 17.888 6.39107C14.6926 7.00514 12.0025 8.56402 9.81771 11.0677C7.43924 13.7934 6.25 17.0139 6.25 20.7292C6.25 24.7569 7.67361 28.1944 10.5208 31.0417C13.3681 33.8889 16.8056 35.3125 20.8333 35.3125C23.125 35.3125 25.2691 34.8264 27.2656 33.8542C28.997 33.011 30.4869 31.9068 31.7352 30.5414C32.0666 30.1789 32.6046 30.0764 33.03 30.3218L36.7502 32.468C37.263 32.7639 37.4095 33.4397 37.0381 33.9008C35.2695 36.0965 33.0797 37.8779 30.4688 39.2448C27.5174 40.7899 24.3056 41.5625 20.8333 41.5625ZM40.3368 28.2014C40.1161 28.7331 39.4751 28.9239 38.9764 28.6362L35.2134 26.4653C34.7898 26.2209 34.6088 25.7069 34.7533 25.2397C34.9327 24.6598 35.0757 24.0677 35.1823 23.4635C35.3385 22.5781 35.4167 21.6667 35.4167 20.7292C35.4167 17.0139 34.2274 13.7934 31.849 11.0677C29.6642 8.56402 26.9741 7.00514 23.7786 6.39107C23.2874 6.29667 22.9167 5.87696 22.9167 5.37673V1.10354C22.9167 0.51244 23.4274 0.0483158 24.0122 0.134308C28.8123 0.840123 32.8915 3.01758 36.25 6.66667C39.8611 10.5903 41.6667 15.2778 41.6667 20.7292C41.6667 22.2569 41.5278 23.7326 41.25 25.1562C41.0425 26.2197 40.7381 27.2348 40.3368 28.2014Z"/>
  </g>
</svg>
