<?xml version="1.0" encoding="utf-8" ?>
<svg xmlns="http://www.w3.org/2000/svg" xmlns:xlink="http://www.w3.org/1999/xlink" viewBox="100 100 300 300" width="512" height="512">
  <g fill="#000000" transform="translate(-15, 15)">
    <path d="M190.117 186.51C179.798 173.924 170.422 160.596 160.227 147.911C158.37 145.6 156.364 143.338 154.766 140.837C150.502 134.162 153.781 125.265 161.956 124.684C169.22 122.343 173.259 130.808 177.025 135.531C185.957 146.732 194.113 158.994 203.405 169.825C210.806 160.645 217.783 151.091 224.851 141.654C229.949 134.847 238.683 118.357 249.349 125.642C259.595 132.639 251.092 141.757 246.149 148.055L238.017 158.56C230.609 168.063 223.386 177.746 216.269 187.469C223.882 197.93 252.196 231.714 253.981 237.606C255.799 243.605 249.878 248.85 244.588 249.992C236.784 250.128 234.229 244.641 229.976 239.199C222.805 230.024 208.892 213.601 203.405 204.168C190.961 215.835 181.408 237.533 169.561 248.059C163.589 253.365 153.747 250.095 152.444 241.957C151.261 234.573 158.877 228.221 162.85 222.912L190.117 186.51Z"/>
    <path d="M292.251 201.481L292.247 228.088C292.248 232.352 292.689 237.085 292.095 241.293C290.983 249.171 282.351 253.551 275.595 248.423C269.643 243.905 271.736 233.439 271.733 226.86L271.734 157.009C271.737 147.275 267.897 125.804 280.939 124.684C281.125 124.673 281.312 124.663 281.498 124.662L315.678 124.681C336.807 124.656 357.786 122.643 357.884 150.318L357.886 168.424C357.951 196.936 352.447 201.5 324.13 201.492L299.893 201.481L292.251 201.481ZM292.251 144.927L292.251 181.109L336.855 181.109C337.904 175.688 337.045 150.972 336.855 144.927L292.251 144.927Z"/>
    <path transform="translate(0, -30)" d="M245.788 339.445C240.221 344.451 217.422 369.573 213.315 371.197C207.883 373.346 201.926 370.465 200.013 364.99C197.169 356.853 205.032 351.569 209.996 346.566L240.334 315.671C244.557 311.324 248.34 305.714 254.472 304.045C263.674 303.013 272.46 316.491 278.12 322.227L297.989 342.595C302.779 347.41 313.095 354.352 312.509 362.005C312.09 367.489 306.517 372.219 301.006 371.533C294.505 370.724 289.253 362.907 284.986 358.641C278.771 352.426 271.654 346.372 266.253 339.445L266.257 380.702C266.258 390.961 269.767 411.132 257.528 414.59C242.208 416.156 245.782 391.023 245.781 382.083L245.788 339.445Z"/>
  </g>
  <g fill="#D4B1A2">
    <path d="M190.117 186.51C179.798 173.924 170.422 160.596 160.227 147.911C158.37 145.6 156.364 143.338 154.766 140.837C150.502 134.162 153.781 125.265 161.956 124.684C169.22 122.343 173.259 130.808 177.025 135.531C185.957 146.732 194.113 158.994 203.405 169.825C210.806 160.645 217.783 151.091 224.851 141.654C229.949 134.847 238.683 118.357 249.349 125.642C259.595 132.639 251.092 141.757 246.149 148.055L238.017 158.56C230.609 168.063 223.386 177.746 216.269 187.469C223.882 197.93 252.196 231.714 253.981 237.606C255.799 243.605 249.878 248.85 244.588 249.992C236.784 250.128 234.229 244.641 229.976 239.199C222.805 230.024 208.892 213.601 203.405 204.168C190.961 215.835 181.408 237.533 169.561 248.059C163.589 253.365 153.747 250.095 152.444 241.957C151.261 234.573 158.877 228.221 162.85 222.912L190.117 186.51Z"/>
    <path d="M292.251 201.481L292.247 228.088C292.248 232.352 292.689 237.085 292.095 241.293C290.983 249.171 282.351 253.551 275.595 248.423C269.643 243.905 271.736 233.439 271.733 226.86L271.734 157.009C271.737 147.275 267.897 125.804 280.939 124.684C281.125 124.673 281.312 124.663 281.498 124.662L315.678 124.681C336.807 124.656 357.786 122.643 357.884 150.318L357.886 168.424C357.951 196.936 352.447 201.5 324.13 201.492L299.893 201.481L292.251 201.481ZM292.251 144.927L292.251 181.109L336.855 181.109C337.904 175.688 337.045 150.972 336.855 144.927L292.251 144.927Z"/>
    <path transform="translate(0, -30)" d="M245.788 339.445C240.221 344.451 217.422 369.573 213.315 371.197C207.883 373.346 201.926 370.465 200.013 364.99C197.169 356.853 205.032 351.569 209.996 346.566L240.334 315.671C244.557 311.324 248.34 305.714 254.472 304.045C263.674 303.013 272.46 316.491 278.12 322.227L297.989 342.595C302.779 347.41 313.095 354.352 312.509 362.005C312.09 367.489 306.517 372.219 301.006 371.533C294.505 370.724 289.253 362.907 284.986 358.641C278.771 352.426 271.654 346.372 266.253 339.445L266.257 380.702C266.258 390.961 269.767 411.132 257.528 414.59C242.208 416.156 245.782 391.023 245.781 382.083L245.788 339.445Z"/>
  </g>
</svg>
