<!-- icon666.com - MILLIONS OF FREE VECTOR ICONS -->
<svg viewBox="0 0 60 60" xmlns="http://www.w3.org/2000/svg">
  <g id="Page-1" fill="none" fill-rule="evenodd">
    <g id="071---Boots" fill="#D4B1A2" fill-rule="nonzero">
      <path id="Shape"
            d="m0 57c0 1.6568542 1.34314575 3 3 3h6c3.029 0 8.256-.991 10.588-3.186l4.927-2.957c.2271854-.1365901.3908419-.3577962.455-.615.5658412-2.7757185.2577122-5.6585764-.882-8.252.11-2.863.354-7 .9-10.848.274-1.919.623-4.064.986-6.289.951-5.823 2.026-12.421 2.026-16.853.039482-2.55274176-.3666036-5.09280714-1.2-7.506-.5466393-1.54037223-2.2288932-2.35633442-3.777-1.832-.7.235-1.406.438-2.116.626-.3274884-1.34045932-1.5271201-2.28464827-2.907-2.288h-7c-1.65685425 0-3 1.34314575-3 3v.373c-.3-.024-.592-.049-.855-.077-.82642407-.09010477-1.65301326.1682723-2.281.713-.62585787.53479456-1.00025586 1.3064241-1.033 2.129-.27 6.371 1.346 11.862 3.393 18.806.589 2 1.2 4.064 1.812 6.321.65 2.369 1.205 4.857 1.673 7.39-3.7 2.591-3.88 5.7-3.768 6.99l-2.648 2.648c-.51632098.4955797-1.07888556.9406084-1.68 1.329-1.285.878-2.613 1.793-2.613 4.378zm23.662-53.443c.5199849-.17074344 1.0806251.10823968 1.258.626.7538836 2.19218966 1.1193675 4.49913759 1.08 6.817 0 4.27-1.062 10.784-2 16.531-.365 2.24-.716 4.4-.992 6.328-.415 2.923-.659 5.993-.8 8.592-1.3612786-1.2578963-2.942224-2.2548003-4.664-2.941-.351-1.835-.945-5.02-1.556-8.674-.633124-4.6756803-.9604861-9.3876898-.98-14.106 2.12-.88 5.992-3.883 5.992-7.73v-4.673c.892-.227 1.784-.475 2.662-.77zm-13.662-.557c0-.55228475.4477153-1 1-1h7c.5522847 0 1 .44771525 1 1v6c0 3.293-4.28 5.889-4.947 6-.806-.145-4.053-2.69-4.053-4zm-4.171 3.223c.01091762-.27071698.13456081-.52452996.341-.7.21101089-.18132763.48720355-.26808973.764-.24.322.035.683.065 1.066.094v5.623c0 2.107 3.072 4.859 5.005 5.723.0154064 4.8310595.3524854 9.655732 1.009 14.442.5 2.991.989 5.675 1.345 7.566-.8946718-.2690979-1.8046276-.484482-2.725-.645-.471-2.517-1.022-4.991-1.669-7.349-.62-2.275-1.231-4.35-1.822-6.358-1.995-6.77-3.57-12.117-3.314-18.156zm6.384 33.822c1.5.252 7.547 1.5 9.892 5.4 1.0016613 2.158181 1.3536376 4.5612099 1.013 6.916l-3.418 2.051c-.387-1.7-1.157-4.315-2.424-5.659-.01-.013-.012-.029-.022-.042-.0326714-.0313974-.0677815-.0601543-.105-.086-.2074131-.2083516-.4455052-.3837169-.706-.52-1.68-.839-5.943-2.312-7.53-2.851-.028-1 .28-3.268 3.3-5.209zm-10.213 13.955c0-1.532.547-1.907 1.745-2.729.70298273-.4567359 1.36005323-.9805169 1.962-1.564l2.561-2.561c1.3.442 4.464 1.534 6.363 2.333-.9040114.6580445-1.8951793 1.1871161-2.945 1.572-.4653947.1546118-.7499982.6238962-.6719957 1.1080581.0780024.4841618.4955911.8403173.9859957.8409419.1067022-.0003234.2126805-.0175365.314-.051 1.4340605-.5262591 2.7769632-1.2736283 3.98-2.215.7797254 1.5392342 1.3260425 3.1859371 1.621 4.886-1.859 1.437-5.954 2.38-8.915 2.38h-6c-.55228475 0-1-.4477153-1-1z"></path>
      <path id="Shape"
            d="m57.387 49.622c-.6011144-.3883916-1.163679-.8334203-1.68-1.329l-2.648-2.648c.112-1.286-.071-4.4-3.768-6.99.468-2.533 1.023-5.021 1.674-7.392.614-2.255 1.223-4.322 1.811-6.319 2.047-6.944 3.663-12.435 3.393-18.807-.0330189-.82222311-.4073919-1.59343884-1.033-2.128-.6300147-.54151326-1.4560419-.79815362-2.282-.709-.262.028-.549.053-.854.077v-.377c0-1.65685425-1.3431458-3-3-3h-7c-1.3772652.00656189-2.573141.9500666-2.9 2.288-.71-.188-1.417-.39-2.113-.624-1.5522133-.52984024-3.2415798.28919249-3.787 1.836-.8328066 2.41126847-1.2388854 4.94926082-1.2 7.5 0 4.432 1.075 11.03 2.024 16.853.363 2.225.712 4.37.986 6.288.549 3.863.794 8.009.9 10.838-1.1399552 2.5972399-1.4480541 5.4836591-.882 8.263.0641581.2572038.2278146.4784099.455.615l4.927 2.957c2.334 2.195 7.561 3.186 10.59 3.186h6c1.6568542 0 3-1.3431458 3-3v-3c0-2.585-1.328-3.5-2.613-4.378zm-5.387-38.622v-5.622c.383-.029.743-.059 1.065-.094.2773128-.03020097.5546358.05680233.765.24.2064392.17547004.3300824.42928302.341.7.256 6.04-1.319 11.387-3.314 18.157-.591 2.008-1.2 4.083-1.821 6.356-.648 2.36-1.2 4.834-1.67 7.351-.9205567.161344-1.8305426.378071-2.725.649.355-1.892.845-4.577 1.345-7.571.6583139-4.7864784.9970638-9.6114924 1.014-14.443 1.928-.864 5-3.616 5-5.723zm-11-8c0-.55228475.4477153-1 1-1h7c.5522847 0 1 .44771525 1 1v8c0 1.31-3.247 3.855-3.958 4-.762-.111-5.042-2.707-5.042-6zm-7 8c-.0394417-2.31680609.3257016-4.62272466 1.079-6.814.1769444-.52024088.7405136-.8002392 1.262-.627.876.294 1.767.544 2.659.768v4.673c0 3.847 3.872 6.85 5.994 7.73-.0194893 4.7179789-.3468515 9.4296574-.98 14.105-.612 3.662-1.207 6.85-1.558 8.684-1.7185683.6922908-3.2964045 1.6923326-4.656 2.951-.145-2.589-.389-5.675-.806-8.612-.276-1.929-.627-4.087-.992-6.327-.94-5.747-2.002-12.261-2.002-16.531zm3.857 34.515c2.379-3.964 8.433-5.217 9.93-5.47 3.02 1.941 3.328 4.209 3.3 5.209-1.587.539-5.85 2.012-7.53 2.851-.2611522.1366026-.4999058.3122955-.708.521-.0352935.025943-.06871.054347-.1.085-.01.013-.012.029-.022.042-1.274 1.347-2.044 3.957-2.427 5.659l-3.414-2.049c-.3329418-2.3285596.003849-4.7037847.971-6.848zm20.143 11.485c0 .5522847-.4477153 1-1 1h-6c-2.961 0-7.056-.943-8.915-2.38.2949575-1.7000629.8412746-3.3467658 1.621-4.886 1.2030368.9413717 2.5459395 1.6887409 3.98 2.215.1013195.0334635.2072978.0506766.314.051.4904046-.0006246.9079933-.3567801.9859957-.8409419.0780025-.4841619-.206601-.9534463-.6719957-1.1080581-1.0498207-.3848839-2.0409886-.9139555-2.945-1.572 1.9-.8 5.062-1.891 6.363-2.333l2.561 2.561c.6019468.5834831 1.2590173 1.1072641 1.962 1.564 1.198.822 1.745 1.197 1.745 2.729z"></path>
    </g>
  </g>
</svg>
