<svg width="60" height="60" viewBox="-2 0 62 62" fill="none" xmlns="http://www.w3.org/2000/svg">
  <g fill="#000000" transform="translate(-2, 2)">
    <path d="M47.1836 36.409C46.3984 34.4798 45.5107 32.2951 47.0078 30.1662C48.2324 28.422 49.0468 22.0032 46.1787 16.4676C44.1924 12.6355 39.7745 8.06634 30.0046 8.06634C20.2346 8.06634 15.8104 12.6383 13.8245 16.4736C10.9564 22.0087 11.7737 28.4222 12.9983 30.1662C14.4895 32.2951 13.6018 34.4798 12.8196 36.4061C12.5647 37.0345 12.301 37.6805 12.1194 38.3148C11.9729 38.8962 12.7669 41.0691 14.299 41.533C14.5275 41.6035 14.8263 41.6769 15.1457 41.7562C16.2325 42.0293 17.7208 42.4022 18.9688 43.1715C21.0694 44.4695 21.5117 46.29 21.5117 47.5908V51.8163C21.5117 51.8751 21.5645 51.9279 21.6231 51.9279H23.4658C23.5244 51.9279 23.5771 51.8751 23.5771 51.8163V48.921C23.5771 48.1164 24.2275 47.4675 25.0273 47.4675C25.827 47.4675 26.4774 48.1194 26.4774 48.921V51.8163C26.4774 51.8751 26.5331 51.9279 26.5946 51.9279H28.4344C28.4959 51.9279 28.5516 51.8751 28.5516 51.8163V48.921C28.5516 48.1164 29.202 47.4675 30.0017 47.4675C30.8015 47.4675 31.4519 48.1194 31.4519 48.921V51.8163C31.4519 51.8751 31.5046 51.9279 31.5632 51.9279H33.4059C33.4645 51.9279 33.5173 51.8751 33.5173 51.8163V48.921C33.5173 48.1164 34.1676 47.4675 34.9674 47.4675C35.7672 47.4675 36.4176 48.1194 36.4176 48.921V51.8163C36.4176 51.8751 36.4733 51.9279 36.5289 51.9279H38.3716C38.4302 51.9279 38.4829 51.8751 38.4829 51.8163V47.5908C38.4829 46.2929 38.9253 44.4724 41.0258 43.1745C42.2739 42.4052 43.7621 42.0322 44.8461 41.7591C45.1654 41.6798 45.4642 41.6035 45.6957 41.533C47.225 41.0691 48.0218 38.8961 47.8753 38.3148C47.6966 37.6805 47.4329 37.0345 47.178 36.4061L47.1836 36.409ZM20.7317 32.8031C18.429 32.8031 16.557 30.8445 16.557 28.4337C16.557 26.02 18.4261 24.0672 20.7317 24.0672C23.0373 24.0672 27.5607 25.2301 26.8634 28.3339C26.1691 31.4435 23.0373 32.8031 20.7317 32.8031ZM33.7214 42.041C33.3581 42.4286 32.8337 42.5519 32.3386 42.364L30.449 41.6563C30.1473 41.5418 29.8514 41.5418 29.5496 41.6563L27.6571 42.364C27.1649 42.549 26.6376 42.4286 26.2773 42.041C25.914 41.6534 25.8291 41.1218 26.0429 40.6403L28.8349 34.4503C29.0429 33.9805 29.4853 33.6957 29.998 33.6957C30.5107 33.6957 30.9501 33.9805 31.161 34.4503L33.9501 40.6403C34.1639 41.1218 34.079 41.6563 33.7186 42.041H33.7214ZM39.2701 32.8031C36.9674 32.8031 33.8298 31.4435 33.1354 28.3339C32.4411 25.2301 36.9645 24.0672 39.2701 24.0672C41.5757 24.0672 43.4418 26.0259 43.4418 28.4337C43.4418 30.8415 41.5727 32.8031 39.2701 32.8031ZM11.5147 14.6295C8.4006 11.7048 5.93091 11.5169 4.10575 11.3789C2.76104 11.2761 2.0814 11.1939 1.31087 10.4246C-0.605107 8.50414 -0.25944 7.5351 1.30794 5.96122C1.81183 5.45909 2.44461 5.14786 3.12725 5.05976L4.06472 5.99941C4.3489 6.28424 4.71803 6.42519 5.0901 6.42519C5.46217 6.42519 5.83422 6.28424 6.11547 5.99941C6.68382 5.42975 6.68382 4.51062 6.11547 3.94097L5.14282 2.96606C5.15454 2.34355 5.30981 1.95004 6.07445 1.18366C7.63591 -0.381424 8.96893 -0.381424 10.5304 1.18366C11.2979 1.95297 11.3829 2.63425 11.4825 3.97916C11.6114 5.70872 11.7872 8.01673 14.2744 10.9032C13.0997 12.1101 12.2003 13.3933 11.5089 14.6295H11.5147ZM48.0471 44.8156C51.3693 48.1425 53.9825 48.3393 55.8927 48.4831C57.2374 48.583 57.917 48.6652 58.6846 49.4374C59.5577 50.3125 60 51.076 60 51.7102C60 52.318 59.5957 52.9963 58.6846 53.9037C58.1836 54.4058 57.5509 54.7141 56.8682 54.8023L55.9337 53.8655C55.3653 53.2959 54.4483 53.2959 53.88 53.8655C53.3117 54.4352 53.3117 55.3543 53.88 55.924L54.8145 56.8607C54.7267 57.5478 54.4191 58.1821 53.9181 58.6842C53.0948 59.5094 52.4504 59.9263 51.8937 59.9909C51.2258 60.0702 50.4084 59.6297 49.4651 58.6842C48.6946 57.912 48.6126 57.2307 48.513 55.8858C48.3694 53.9742 48.1731 51.3549 44.851 48.022L42.5131 45.6817C43.2075 45.2471 44.224 44.9183 45.5629 44.5835C45.9173 44.4954 46.2513 44.4103 46.5472 44.3222C46.7962 44.2458 47.0364 44.1519 47.2738 44.0373L48.0531 44.8184L48.0471 44.8156ZM14.4359 44.5807C15.7748 44.9154 16.7913 45.2413 17.4856 45.6788L15.1507 48.0192C11.8285 51.3491 11.6323 53.9684 11.4887 55.8829C11.3862 57.2278 11.3042 57.909 10.5366 58.6814C8.61772 60.6047 7.65091 60.2553 6.08068 58.6814C5.57971 58.1792 5.27212 57.5479 5.18423 56.8608L6.1217 55.924C6.69005 55.3573 6.69005 54.4353 6.12463 53.8656C5.55921 53.2959 4.63929 53.2959 4.07096 53.8627L3.13056 54.7994C2.44795 54.7113 1.81224 54.403 1.31125 53.9009C-0.259061 52.3269 -0.604727 51.3579 1.31125 49.4346C2.08171 48.6623 2.76141 48.5801 4.10613 48.4803C6.01626 48.3364 8.62942 48.1397 11.9487 44.8127L12.7251 44.0345C12.9594 44.1461 13.2026 44.243 13.4516 44.3194C13.7475 44.4075 14.0815 44.4926 14.433 44.5807L14.4359 44.5807ZM55.8897 11.3756C54.0645 11.5136 51.5977 11.7016 48.4807 14.6262C47.7922 13.39 46.8928 12.1068 45.718 10.9029C48.2023 8.01643 48.3781 5.70834 48.5071 3.97886C48.6067 2.63395 48.6887 1.95274 49.4592 1.18043C50.2414 0.396382 50.9884 0 51.6827 0H51.6856C52.3858 0 53.1387 0.396412 53.918 1.18043C54.6885 1.94974 54.838 2.32853 54.8497 2.96283L53.877 3.93774C53.3116 4.5074 53.3116 5.42652 53.8799 5.99618C54.1641 6.28101 54.5332 6.42196 54.9053 6.42196C55.2774 6.42196 55.6494 6.27807 55.9336 5.99324L56.8682 5.05359C57.5537 5.14169 58.1836 5.45001 58.6845 5.95212C59.5078 6.77729 59.9237 7.42324 59.9882 7.9841C60.0673 8.6536 59.6279 9.47288 58.6845 10.4184C57.9141 11.1906 57.2344 11.2729 55.8926 11.3727L55.8897 11.3756Z"/>
  </g>
  <g fill="#D4B1A2">
    <path d="M47.1836 36.409C46.3984 34.4798 45.5107 32.2951 47.0078 30.1662C48.2324 28.422 49.0468 22.0032 46.1787 16.4676C44.1924 12.6355 39.7745 8.06634 30.0046 8.06634C20.2346 8.06634 15.8104 12.6383 13.8245 16.4736C10.9564 22.0087 11.7737 28.4222 12.9983 30.1662C14.4895 32.2951 13.6018 34.4798 12.8196 36.4061C12.5647 37.0345 12.301 37.6805 12.1194 38.3148C11.9729 38.8962 12.7669 41.0691 14.299 41.533C14.5275 41.6035 14.8263 41.6769 15.1457 41.7562C16.2325 42.0293 17.7208 42.4022 18.9688 43.1715C21.0694 44.4695 21.5117 46.29 21.5117 47.5908V51.8163C21.5117 51.8751 21.5645 51.9279 21.6231 51.9279H23.4658C23.5244 51.9279 23.5771 51.8751 23.5771 51.8163V48.921C23.5771 48.1164 24.2275 47.4675 25.0273 47.4675C25.827 47.4675 26.4774 48.1194 26.4774 48.921V51.8163C26.4774 51.8751 26.5331 51.9279 26.5946 51.9279H28.4344C28.4959 51.9279 28.5516 51.8751 28.5516 51.8163V48.921C28.5516 48.1164 29.202 47.4675 30.0017 47.4675C30.8015 47.4675 31.4519 48.1194 31.4519 48.921V51.8163C31.4519 51.8751 31.5046 51.9279 31.5632 51.9279H33.4059C33.4645 51.9279 33.5173 51.8751 33.5173 51.8163V48.921C33.5173 48.1164 34.1676 47.4675 34.9674 47.4675C35.7672 47.4675 36.4176 48.1194 36.4176 48.921V51.8163C36.4176 51.8751 36.4733 51.9279 36.5289 51.9279H38.3716C38.4302 51.9279 38.4829 51.8751 38.4829 51.8163V47.5908C38.4829 46.2929 38.9253 44.4724 41.0258 43.1745C42.2739 42.4052 43.7621 42.0322 44.8461 41.7591C45.1654 41.6798 45.4642 41.6035 45.6957 41.533C47.225 41.0691 48.0218 38.8961 47.8753 38.3148C47.6966 37.6805 47.4329 37.0345 47.178 36.4061L47.1836 36.409ZM20.7317 32.8031C18.429 32.8031 16.557 30.8445 16.557 28.4337C16.557 26.02 18.4261 24.0672 20.7317 24.0672C23.0373 24.0672 27.5607 25.2301 26.8634 28.3339C26.1691 31.4435 23.0373 32.8031 20.7317 32.8031ZM33.7214 42.041C33.3581 42.4286 32.8337 42.5519 32.3386 42.364L30.449 41.6563C30.1473 41.5418 29.8514 41.5418 29.5496 41.6563L27.6571 42.364C27.1649 42.549 26.6376 42.4286 26.2773 42.041C25.914 41.6534 25.8291 41.1218 26.0429 40.6403L28.8349 34.4503C29.0429 33.9805 29.4853 33.6957 29.998 33.6957C30.5107 33.6957 30.9501 33.9805 31.161 34.4503L33.9501 40.6403C34.1639 41.1218 34.079 41.6563 33.7186 42.041H33.7214ZM39.2701 32.8031C36.9674 32.8031 33.8298 31.4435 33.1354 28.3339C32.4411 25.2301 36.9645 24.0672 39.2701 24.0672C41.5757 24.0672 43.4418 26.0259 43.4418 28.4337C43.4418 30.8415 41.5727 32.8031 39.2701 32.8031ZM11.5147 14.6295C8.4006 11.7048 5.93091 11.5169 4.10575 11.3789C2.76104 11.2761 2.0814 11.1939 1.31087 10.4246C-0.605107 8.50414 -0.25944 7.5351 1.30794 5.96122C1.81183 5.45909 2.44461 5.14786 3.12725 5.05976L4.06472 5.99941C4.3489 6.28424 4.71803 6.42519 5.0901 6.42519C5.46217 6.42519 5.83422 6.28424 6.11547 5.99941C6.68382 5.42975 6.68382 4.51062 6.11547 3.94097L5.14282 2.96606C5.15454 2.34355 5.30981 1.95004 6.07445 1.18366C7.63591 -0.381424 8.96893 -0.381424 10.5304 1.18366C11.2979 1.95297 11.3829 2.63425 11.4825 3.97916C11.6114 5.70872 11.7872 8.01673 14.2744 10.9032C13.0997 12.1101 12.2003 13.3933 11.5089 14.6295H11.5147ZM48.0471 44.8156C51.3693 48.1425 53.9825 48.3393 55.8927 48.4831C57.2374 48.583 57.917 48.6652 58.6846 49.4374C59.5577 50.3125 60 51.076 60 51.7102C60 52.318 59.5957 52.9963 58.6846 53.9037C58.1836 54.4058 57.5509 54.7141 56.8682 54.8023L55.9337 53.8655C55.3653 53.2959 54.4483 53.2959 53.88 53.8655C53.3117 54.4352 53.3117 55.3543 53.88 55.924L54.8145 56.8607C54.7267 57.5478 54.4191 58.1821 53.9181 58.6842C53.0948 59.5094 52.4504 59.9263 51.8937 59.9909C51.2258 60.0702 50.4084 59.6297 49.4651 58.6842C48.6946 57.912 48.6126 57.2307 48.513 55.8858C48.3694 53.9742 48.1731 51.3549 44.851 48.022L42.5131 45.6817C43.2075 45.2471 44.224 44.9183 45.5629 44.5835C45.9173 44.4954 46.2513 44.4103 46.5472 44.3222C46.7962 44.2458 47.0364 44.1519 47.2738 44.0373L48.0531 44.8184L48.0471 44.8156ZM14.4359 44.5807C15.7748 44.9154 16.7913 45.2413 17.4856 45.6788L15.1507 48.0192C11.8285 51.3491 11.6323 53.9684 11.4887 55.8829C11.3862 57.2278 11.3042 57.909 10.5366 58.6814C8.61772 60.6047 7.65091 60.2553 6.08068 58.6814C5.57971 58.1792 5.27212 57.5479 5.18423 56.8608L6.1217 55.924C6.69005 55.3573 6.69005 54.4353 6.12463 53.8656C5.55921 53.2959 4.63929 53.2959 4.07096 53.8627L3.13056 54.7994C2.44795 54.7113 1.81224 54.403 1.31125 53.9009C-0.259061 52.3269 -0.604727 51.3579 1.31125 49.4346C2.08171 48.6623 2.76141 48.5801 4.10613 48.4803C6.01626 48.3364 8.62942 48.1397 11.9487 44.8127L12.7251 44.0345C12.9594 44.1461 13.2026 44.243 13.4516 44.3194C13.7475 44.4075 14.0815 44.4926 14.433 44.5807L14.4359 44.5807ZM55.8897 11.3756C54.0645 11.5136 51.5977 11.7016 48.4807 14.6262C47.7922 13.39 46.8928 12.1068 45.718 10.9029C48.2023 8.01643 48.3781 5.70834 48.5071 3.97886C48.6067 2.63395 48.6887 1.95274 49.4592 1.18043C50.2414 0.396382 50.9884 0 51.6827 0H51.6856C52.3858 0 53.1387 0.396412 53.918 1.18043C54.6885 1.94974 54.838 2.32853 54.8497 2.96283L53.877 3.93774C53.3116 4.5074 53.3116 5.42652 53.8799 5.99618C54.1641 6.28101 54.5332 6.42196 54.9053 6.42196C55.2774 6.42196 55.6494 6.27807 55.9336 5.99324L56.8682 5.05359C57.5537 5.14169 58.1836 5.45001 58.6845 5.95212C59.5078 6.77729 59.9237 7.42324 59.9882 7.9841C60.0673 8.6536 59.6279 9.47288 58.6845 10.4184C57.9141 11.1906 57.2344 11.2729 55.8926 11.3727L55.8897 11.3756Z"/>
  </g>
</svg>
