<svg width="25" height="26" viewBox="0 0 25 26" fill="none" xmlns="http://www.w3.org/2000/svg">
  <g fill="#000000" transform="translate(-1, 1)">
    <path d="M25.0001 19.8503L22.4175 19.1348C21.8457 20.1046 21.1064 20.958 20.2383 21.652C19.943 21.889 19.6332 22.1067 19.3109 22.3028L16.8198 23.8287L19.4731 24.5657C19.7206 24.6336 19.9742 24.6681 20.23 24.6692C21.5462 24.6659 22.6982 23.75 23.0412 22.4321L21.4317 21.9839C21.6792 22.0517 21.9329 22.0862 22.1886 22.0873C23.5059 22.0862 24.6592 21.1692 25.0001 19.8503Z"/>
    <path d="M3.80727 22.0872C4.06303 22.0861 4.31672 22.0516 4.56417 21.9837L2.95891 22.432C3.30202 23.7499 4.45398 24.6658 5.77008 24.669C6.02376 24.668 6.27744 24.6335 6.52281 24.5656L9.17192 23.8285L6.67667 22.3027C6.35646 22.1077 6.04766 21.8911 5.75342 21.6562H5.74926C4.88113 20.959 4.14294 20.1045 3.57009 19.1346L1 19.8502C1.341 21.168 2.491 22.084 3.80727 22.0872Z"/>
    <path d="M8.61468 19.1993L12.5781 21.626C12.8349 21.7812 13.153 21.7812 13.4098 21.626L17.3732 19.1993C19.0398 18.1756 20.1324 16.3847 20.3092 14.3847L20.9496 7.08304C18.0852 6.37938 15.3821 5.10031 12.9938 3.31592C10.6057 5.10039 7.90249 6.37932 5.03809 7.08304L5.67852 14.3847C5.85526 16.3847 6.94812 18.1756 8.61468 19.1993ZM11.9832 10.5917L12.9938 7.97533L14.0043 10.5917H16.5287L14.7612 12.3718L15.4682 15.3028L12.9938 13.8373L10.5193 15.3028L11.2263 12.3718L9.45883 10.5917H11.9832Z"/>
    <path d="M6.99284 21.7467L11.7089 24.6347C12.5012 25.1218 13.4868 25.1218 14.279 24.6347L18.9951 21.7467C21.3281 20.319 22.8554 17.8147 23.0998 15.0183L23.9149 5.73814C23.9544 5.30819 23.683 4.9138 23.2786 4.81143C19.7656 3.90302 16.4447 2.32763 13.4847 0.164869C13.1915 -0.0549565 12.7965 -0.0549565 12.5033 0.164869C9.54333 2.32754 6.22247 3.90302 2.70943 4.81143C2.305 4.91379 2.03363 5.30819 2.07315 5.73814L2.88826 15.0183C3.13259 17.8147 4.65974 20.3189 6.99284 21.7467ZM4.51008 6.31579C7.48361 5.63368 10.2855 4.31367 12.736 2.44081C12.8867 2.31581 13.1009 2.31581 13.2517 2.44081C15.7032 4.31146 18.5051 5.63139 21.4776 6.31579C21.6866 6.35781 21.83 6.55717 21.8103 6.777L21.1366 14.4665C20.9338 16.7402 19.6925 18.7757 17.7971 19.9407L13.8337 22.3674C13.3149 22.6831 12.6724 22.6831 12.1536 22.3674L8.19021 19.9407C6.29486 18.7758 5.05352 16.7402 4.85071 14.4665L4.17701 6.777C4.15725 6.55717 4.30073 6.35783 4.50971 6.31579H4.51008Z"/>
  </g>
  <g fill="#D4B1A2">
    <path d="M25.0001 19.8503L22.4175 19.1348C21.8457 20.1046 21.1064 20.958 20.2383 21.652C19.943 21.889 19.6332 22.1067 19.3109 22.3028L16.8198 23.8287L19.4731 24.5657C19.7206 24.6336 19.9742 24.6681 20.23 24.6692C21.5462 24.6659 22.6982 23.75 23.0412 22.4321L21.4317 21.9839C21.6792 22.0517 21.9329 22.0862 22.1886 22.0873C23.5059 22.0862 24.6592 21.1692 25.0001 19.8503Z"/>
    <path d="M3.80727 22.0872C4.06303 22.0861 4.31672 22.0516 4.56417 21.9837L2.95891 22.432C3.30202 23.7499 4.45398 24.6658 5.77008 24.669C6.02376 24.668 6.27744 24.6335 6.52281 24.5656L9.17192 23.8285L6.67667 22.3027C6.35646 22.1077 6.04766 21.8911 5.75342 21.6562H5.74926C4.88113 20.959 4.14294 20.1045 3.57009 19.1346L1 19.8502C1.341 21.168 2.491 22.084 3.80727 22.0872Z"/>
    <path d="M8.61468 19.1993L12.5781 21.626C12.8349 21.7812 13.153 21.7812 13.4098 21.626L17.3732 19.1993C19.0398 18.1756 20.1324 16.3847 20.3092 14.3847L20.9496 7.08304C18.0852 6.37938 15.3821 5.10031 12.9938 3.31592C10.6057 5.10039 7.90249 6.37932 5.03809 7.08304L5.67852 14.3847C5.85526 16.3847 6.94812 18.1756 8.61468 19.1993ZM11.9832 10.5917L12.9938 7.97533L14.0043 10.5917H16.5287L14.7612 12.3718L15.4682 15.3028L12.9938 13.8373L10.5193 15.3028L11.2263 12.3718L9.45883 10.5917H11.9832Z"/>
    <path d="M6.99284 21.7467L11.7089 24.6347C12.5012 25.1218 13.4868 25.1218 14.279 24.6347L18.9951 21.7467C21.3281 20.319 22.8554 17.8147 23.0998 15.0183L23.9149 5.73814C23.9544 5.30819 23.683 4.9138 23.2786 4.81143C19.7656 3.90302 16.4447 2.32763 13.4847 0.164869C13.1915 -0.0549565 12.7965 -0.0549565 12.5033 0.164869C9.54333 2.32754 6.22247 3.90302 2.70943 4.81143C2.305 4.91379 2.03363 5.30819 2.07315 5.73814L2.88826 15.0183C3.13259 17.8147 4.65974 20.3189 6.99284 21.7467ZM4.51008 6.31579C7.48361 5.63368 10.2855 4.31367 12.736 2.44081C12.8867 2.31581 13.1009 2.31581 13.2517 2.44081C15.7032 4.31146 18.5051 5.63139 21.4776 6.31579C21.6866 6.35781 21.83 6.55717 21.8103 6.777L21.1366 14.4665C20.9338 16.7402 19.6925 18.7757 17.7971 19.9407L13.8337 22.3674C13.3149 22.6831 12.6724 22.6831 12.1536 22.3674L8.19021 19.9407C6.29486 18.7758 5.05352 16.7402 4.85071 14.4665L4.17701 6.777C4.15725 6.55717 4.30073 6.35783 4.50971 6.31579H4.51008Z"/>
  </g>
</svg>
