<svg width="50" height="65" viewBox="0 0 50 65" fill="none" xmlns="http://www.w3.org/2000/svg">
    <path d="M45.9277 45.8265L48.6097 49.079L48.9232 49.461L33.8911 63.7166V38.6565L40.5145 34.8361L41.0149 34.5475V33.9698V27.7137V25.9823L39.5151 26.8476L28.529 33.1862L28.0288 33.4748V34.0524V42.8995L24.9984 45.2012L21.9711 42.8996V34.0524V33.4748L21.4708 33.1862L10.4814 26.8475L8.98177 25.9825V27.7137V33.9698V34.5475L9.48212 34.8361L16.1056 38.6565V63.7164L1.07944 49.4613L4.07399 45.8262L4.30216 45.5492V45.1903V25.7904C4.30216 17.8757 9.17582 10.8563 16.2187 7.86127L17.4436 17.5898L17.4437 17.5901C17.7545 20.0516 19.8566 21.9056 22.3391 21.9056H27.6654C30.1479 21.9056 32.25 20.0516 32.5608 17.5901L32.5609 17.5895L33.7829 7.86135C40.8256 10.856 45.6992 17.875 45.6992 25.7904V45.1903V45.5495L45.9277 45.8265ZM25.0007 1.02181L29.2073 2.9899L27.478 16.7596H22.5267L20.7943 2.98984L25.0007 1.02181Z"
          stroke="#D4B1A2" stroke-width="2"/>
</svg>
