<svg width="43" height="43" viewBox="0 0 43 43" fill="none" xmlns="http://www.w3.org/2000/svg">
<path d="M21.4433 41.8C32.6256 41.8 41.6867 32.7092 41.6867 21.5C41.6867 10.2908 32.6256 1.2 21.4433 1.2C10.2611 1.2 1.2 10.2908 1.2 21.5C1.2 32.7092 10.2611 41.8 21.4433 41.8Z" fill="#FF7000" stroke="black" stroke-width="1.6"/>
<mask id="mask0_61_9785" style="mask-type:alpha" maskUnits="userSpaceOnUse" x="2" y="2" width="35" height="35">
<ellipse cx="19.1676" cy="19.2176" rx="17.1676" ry="17.2176" fill="#FD36D4"/>
</mask>
<g mask="url(#mask0_61_9785)">
<path d="M8.06347 23.8586L0.474609 29.7131L8.06347 41.7378H33.9736L42.4157 29.7131L34.7819 23.8586H8.06347Z" fill="#FF923C"/>
</g>
<ellipse cx="21.4434" cy="21.7166" rx="13.7715" ry="13.8116" fill="url(#paint0_radial_61_9785)"/>
<mask id="path-5-outside-1_61_9785" maskUnits="userSpaceOnUse" x="15.5107" y="12.1442" width="10" height="20" fill="black">
<rect fill="white" x="15.5107" y="12.1442" width="10" height="20"/>
<path d="M23.986 13.6896V31.1442H21.8724V15.9055H21.7701L17.5087 18.7351V16.5873L21.8724 13.6896H23.986Z"/>
</mask>
<path d="M23.986 13.6896V31.1442H21.8724V15.9055H21.7701L17.5087 18.7351V16.5873L21.8724 13.6896H23.986Z" fill="white"/>
<path d="M23.986 13.6896H24.986V12.6896H23.986V13.6896ZM23.986 31.1442V32.1442H24.986V31.1442H23.986ZM21.8724 31.1442H20.8724V32.1442H21.8724V31.1442ZM21.8724 15.9055H22.8724V14.9055H21.8724V15.9055ZM21.7701 15.9055V14.9055H21.4683L21.2169 15.0725L21.7701 15.9055ZM17.5087 18.7351H16.5087V20.5994L18.0619 19.5681L17.5087 18.7351ZM17.5087 16.5873L16.9555 15.7543L16.5087 16.051V16.5873H17.5087ZM21.8724 13.6896V12.6896H21.5706L21.3192 12.8566L21.8724 13.6896ZM22.986 13.6896V31.1442H24.986V13.6896H22.986ZM23.986 30.1442H21.8724V32.1442H23.986V30.1442ZM22.8724 31.1442V15.9055H20.8724V31.1442H22.8724ZM21.8724 14.9055H21.7701V16.9055H21.8724V14.9055ZM21.2169 15.0725L16.9556 17.902L18.0619 19.5681L22.3232 16.7386L21.2169 15.0725ZM18.5087 18.7351V16.5873H16.5087V18.7351H18.5087ZM18.0619 17.4204L22.4256 14.5227L21.3192 12.8566L16.9555 15.7543L18.0619 17.4204ZM21.8724 14.6896H23.986V12.6896H21.8724V14.6896Z" fill="#210E00" mask="url(#path-5-outside-1_61_9785)"/>
<defs>
<radialGradient id="paint0_radial_61_9785" cx="0" cy="0" r="1" gradientUnits="userSpaceOnUse" gradientTransform="translate(23.0068 21.7166) rotate(97.8783) scale(14.5545 15.8284)">
<stop stop-color="#B37011"/>
<stop offset="1" stop-color="#B0302E"/>
</radialGradient>
</defs>
</svg>
