<svg width="43" height="43" viewBox="0 0 43 43" fill="none" xmlns="http://www.w3.org/2000/svg">
<g filter="url(#filter0_d_52_5455)">
<path d="M15.3343 11.4202C15.3343 13.0394 14.0218 14.3519 12.4046 14.3519C10.7854 14.3519 9.4729 13.0394 9.4729 11.4202C9.4729 9.803 10.7854 8.49048 12.4046 8.49048C14.0218 8.49048 15.3343 9.803 15.3343 11.4202Z" fill="#D4B1A2"/>
<path d="M30.7332 20.5433C30.7527 20.2679 30.8816 20.0101 31.0887 19.8285L42.6688 9.75782V6.24802C42.6688 5.25385 42.4286 4.31829 42.0165 3.48238L1.6604 38.1939C2.48656 39.8521 4.02568 41.0924 5.87531 41.5103L25.5201 24.6176C25.9596 24.2426 26.6158 24.2934 26.9889 24.727L40.3561 40.2662C41.7662 39.1197 42.6686 37.3716 42.6686 35.4185V34.729L30.9869 21.2993C30.8053 21.0903 30.7156 20.8187 30.7332 20.5433Z" fill="#D4B1A2"/>
<path d="M33.2427 20.7193L42.6688 31.5554V12.5222L33.2427 20.7193Z" fill="#D4B1A2"/>
<path d="M40.7897 1.79103C39.6608 0.68556 38.1197 0 36.4185 0H7.25009C3.80279 0 1 2.80279 1 6.25009V35.4165C1 35.6099 1.01172 35.7993 1.0293 35.9868L40.7897 1.79103ZM12.4043 4.16801C16.4551 4.16801 19.7519 7.46296 19.7519 11.5156C19.7519 17.7442 13.2343 21.8928 12.9588 22.0668L12.406 22.4125L11.8533 22.0668C11.5759 21.8929 5.06016 17.7464 5.06016 11.5156C5.06016 7.46476 8.35511 4.16801 12.4078 4.16801H12.4043Z" fill="#D4B1A2"/>
<path d="M26.0885 26.8754L8.88721 41.6666H36.4171C37.1476 41.6666 37.8468 41.5338 38.4992 41.3014L26.087 26.8736L26.0885 26.8754Z" fill="#D4B1A2"/>
</g>
<defs>
<filter id="filter0_d_52_5455" x="0" y="0" width="42.6689" height="42.6666" filterUnits="userSpaceOnUse" color-interpolation-filters="sRGB">
<feFlood flood-opacity="0" result="BackgroundImageFix"/>
<feColorMatrix in="SourceAlpha" type="matrix" values="0 0 0 0 0 0 0 0 0 0 0 0 0 0 0 0 0 0 127 0" result="hardAlpha"/>
<feOffset dx="-1" dy="1"/>
<feComposite in2="hardAlpha" operator="out"/>
<feColorMatrix type="matrix" values="0 0 0 0 0 0 0 0 0 0 0 0 0 0 0 0 0 0 1 0"/>
<feBlend mode="normal" in2="BackgroundImageFix" result="effect1_dropShadow_52_5455"/>
<feBlend mode="normal" in="SourceGraphic" in2="effect1_dropShadow_52_5455" result="shape"/>
</filter>
</defs>
</svg>
