<svg width="27" height="23" viewBox="0 0 27 23" fill="none" xmlns="http://www.w3.org/2000/svg">
<g filter="url(#filter0_d_75_206)">
<path fill-rule="evenodd" clip-rule="evenodd" d="M8.8 1.375C8.8 0.615615 9.38204 0 10.1 0H17.9C18.618 0 19.2 0.615615 19.2 1.375V6.875C19.2 7.63439 18.618 8.25 17.9 8.25H15.3V9.625H25.7C26.418 9.625 27 10.2406 27 11C27 11.7594 26.418 12.375 25.7 12.375H23.1V13.75H25.7C26.418 13.75 27 14.3656 27 15.125V20.625C27 21.3844 26.418 22 25.7 22H17.9C17.182 22 16.6 21.3844 16.6 20.625V15.125C16.6 14.3656 17.182 13.75 17.9 13.75H20.5V12.375H7.5V13.75H10.1C10.818 13.75 11.4 14.3656 11.4 15.125V20.625C11.4 21.3844 10.818 22 10.1 22H2.3C1.58204 22 1 21.3844 1 20.625V15.125C1 14.3656 1.58204 13.75 2.3 13.75H4.9V12.375H2.3C1.58204 12.375 1 11.7594 1 11C1 10.2406 1.58204 9.625 2.3 9.625H12.7V8.25H10.1C9.38204 8.25 8.8 7.63439 8.8 6.875V1.375ZM19.2 16.5V19.25H24.4V16.5H19.2ZM3.6 19.25V16.5H8.8V19.25H3.6ZM16.6 5.5V2.75H11.4V5.5H16.6Z" fill="#D4B1A2"/>
</g>
<defs>
<filter id="filter0_d_75_206" x="0" y="0" width="27" height="23" filterUnits="userSpaceOnUse" color-interpolation-filters="sRGB">
<feFlood flood-opacity="0" result="BackgroundImageFix"/>
<feColorMatrix in="SourceAlpha" type="matrix" values="0 0 0 0 0 0 0 0 0 0 0 0 0 0 0 0 0 0 127 0" result="hardAlpha"/>
<feOffset dx="-1" dy="1"/>
<feComposite in2="hardAlpha" operator="out"/>
<feColorMatrix type="matrix" values="0 0 0 0 0 0 0 0 0 0 0 0 0 0 0 0 0 0 1 0"/>
<feBlend mode="normal" in2="BackgroundImageFix" result="effect1_dropShadow_75_206"/>
<feBlend mode="normal" in="SourceGraphic" in2="effect1_dropShadow_75_206" result="shape"/>
</filter>
</defs>
</svg>
