<svg width="19" height="23" viewBox="0 0 19 23" fill="none" xmlns="http://www.w3.org/2000/svg">
  <g fill="#000000" transform="translate(-1, 1)">
    <path d="M10 10C12.7632 10 15 7.76316 15 5C15 2.23684 12.7632 0 10 0C7.23684 0 5 2.23684 5 5C5 7.76316 7.23684 10 10 10Z"/>
    <path
      d="M1.78488 22H18.2151C18.6599 22 19 21.6512 19 21.1951V18.2439C19 14.2463 15.8343 11 11.936 11H8.06395C4.1657 11 1 14.2463 1 18.2439V21.1951C1 21.6512 1.34012 22 1.78488 22Z"/>
  </g>
  <g fill="#D4B1A2">
    <path d="M10 10C12.7632 10 15 7.76316 15 5C15 2.23684 12.7632 0 10 0C7.23684 0 5 2.23684 5 5C5 7.76316 7.23684 10 10 10Z"/>
    <path
      d="M1.78488 22H18.2151C18.6599 22 19 21.6512 19 21.1951V18.2439C19 14.2463 15.8343 11 11.936 11H8.06395C4.1657 11 1 14.2463 1 18.2439V21.1951C1 21.6512 1.34012 22 1.78488 22Z"/>
  </g>
</svg>
