<svg width="43" height="43" viewBox="0 0 43 43" fill="none" xmlns="http://www.w3.org/2000/svg">
<path d="M21.4433 41.8C32.6256 41.8 41.6867 32.7092 41.6867 21.5C41.6867 10.2908 32.6256 1.2 21.4433 1.2C10.2611 1.2 1.2 10.2908 1.2 21.5C1.2 32.7092 10.2611 41.8 21.4433 41.8Z" fill="#FF7000" stroke="black" stroke-width="1.6"/>
<mask id="mask0_61_9785" style="mask-type:alpha" maskUnits="userSpaceOnUse" x="2" y="2" width="35" height="35">
<ellipse cx="19.1676" cy="19.2176" rx="17.1676" ry="17.2176" fill="#FD36D4"/>
</mask>
<g mask="url(#mask0_61_9785)">
<path d="M8.06347 23.8586L0.474609 29.7131L8.06347 41.7378H33.9736L42.4157 29.7131L34.7819 23.8586H8.06347Z" fill="#FF923C"/>
</g>
<ellipse cx="21.4434" cy="21.7166" rx="13.7715" ry="13.8116" fill="url(#paint0_radial_61_9785)"/>
<mask id="path-5-outside-1_61_9785" maskUnits="userSpaceOnUse" x="15.5107" y="12.1442" width="10" height="20" fill="black">
<rect fill="white" x="15.5107" y="12.1442" width="10" height="20"/>
<path d="M23.986 13.6896V31.1442H21.8724V15.9055H21.7701L17.5087 18.7351V16.5873L21.8724 13.6896H23.986Z"/>
</mask>
<defs>
<radialGradient id="paint0_radial_61_9785" cx="0" cy="0" r="1" gradientUnits="userSpaceOnUse" gradientTransform="translate(23.0068 21.7166) rotate(97.8783) scale(14.5545 15.8284)">
<stop stop-color="#B37011"/>
<stop offset="1" stop-color="#B0302E"/>
</radialGradient>
</defs>
</svg>
