<svg width="45" height="46" viewBox="0 0 45 46" fill="#210E00" xmlns="http://www.w3.org/2000/svg">
<path d="M44.6861 0.346185C44.4019 0.0595113 44.0704 -0.0360467 43.6914 0.0117323L35.8758 1.15843C35.5916 1.20621 35.3548 1.34954 35.1653 1.54066L13.8028 25.1435L9.7292 22.2767C9.39763 22.0378 8.92396 22.0856 8.59239 22.3723L6.55561 24.4268C6.22404 24.7612 6.22404 25.3346 6.55561 25.669L10.9607 30.1125L5.22933 35.9415L3.14518 33.8393C2.81361 33.5048 2.2452 33.5048 1.91363 33.8393L0.255782 35.4637C-0.0284203 35.7504 -0.0757874 36.2282 0.113681 36.5627L1.6768 39.0472C2.86097 40.9105 4.42409 42.535 6.31877 43.7295L8.78186 45.3062C8.92396 45.4018 9.11343 45.4496 9.25553 45.4496C9.49237 45.4496 9.7292 45.354 9.8713 45.2107L11.4818 43.5862C11.8134 43.2517 11.8134 42.6784 11.4818 42.3439L9.39763 40.2416L15.1291 34.4604L19.5342 38.9038C19.7237 39.0949 19.9131 39.1427 20.15 39.1427C20.3868 39.1427 20.6236 39.0472 20.7657 38.9038L22.8025 36.8493C23.0867 36.5627 23.1341 36.0849 22.8973 35.7026L20.0552 31.5936L43.4546 10.0453C43.644 9.8542 43.7861 9.61531 43.8335 9.32863L44.9703 1.4451C45.0651 1.01509 44.923 0.632859 44.6861 0.346185Z"/>
</svg>
