<svg width="24" height="24" viewBox="0 0 24 24" xmlns="http://www.w3.org/2000/svg">
    <g fill="#210E00">
        <path d="M23.6642 21.031L21.3577 18.7229C21.3638 18.7106 21.3638 18.7106 21.3638 18.6983C21.9589 17.4215 21.7442 15.8561 20.6891 14.8003L19.0635 16.427L14.1256 11.4854L20.0511 5.55548C21.5233 4.0822 22.3514 2.081 22.3514 0L12.5 9.85868L2.64855 0C2.64855 2.08714 3.47666 4.0822 4.94886 5.55548L10.8744 11.4854L5.93646 16.427L4.31091 14.8003C3.25583 15.8561 3.04114 17.4215 3.63615 18.6983C3.64229 18.7106 3.64229 18.7106 3.64229 18.7229L1.33584 21.031C0.888052 21.4791 0.888052 22.2096 1.33584 22.6578C1.78364 23.1059 2.5136 23.1059 2.96139 22.6578L5.26784 20.3496C5.2801 20.3558 5.2801 20.3558 5.29237 20.3558C6.56828 20.9512 8.13248 20.7364 9.18756 19.6805L7.56201 18.0538L12.5 13.1122L17.438 18.0538L15.8124 19.6867C16.8675 20.7425 18.4317 20.9574 19.7076 20.3619C19.7138 20.3558 19.7199 20.3558 19.7322 20.3558L22.0386 22.6639C22.4864 23.112 23.2164 23.112 23.6642 22.6639C24.1119 22.2097 24.1119 21.4791 23.6642 21.031Z"/>
    </g>
</svg>
