<?xml version="1.0" encoding="utf-8" ?>
<svg xmlns="http://www.w3.org/2000/svg" viewBox="50 50 410 410" xmlns:xlink="http://www.w3.org/1999/xlink" width="500" height="500" stroke-width="20">
  <g fill="#210E00" stroke="#210E00">
    <path d="M316.279 373.334C313.033 376.47 309.996 379.81 306.804 382.999L286.374 403.383C278.994 410.848 271.463 418.122 264.18 425.689C259.919 430.117 255.776 433.496 250.467 428.628C244.535 423.189 239.098 417.056 233.433 411.333L97.271 275.378C58.7884 236.936 62.6039 166.304 100.659 128.415C119.268 109.887 146.39 97.4022 172.841 97.558C204.277 94.5457 234.397 111.48 256.1 132.953C297.969 87.0835 367.43 85.7026 411.295 129.346C445.517 163.397 450.433 221.673 425.304 262.248C420.77 269.567 415.601 274.685 409.546 280.649L316.279 373.334ZM170.342 112.223C101.031 114.932 61.2418 196.213 98.805 254.032C103.919 261.904 110.291 268.139 116.916 274.703L240.868 398.556C245.996 403.64 250.888 409.029 256.1 414.014C270.08 397.44 291.024 379.869 306.524 363.514C310.031 359.813 314.388 356.288 317.258 352.125C321.684 348.774 325.584 344.441 329.521 340.537L387.627 282.758C409.82 260.65 421.638 250.493 426.129 217.337C432.789 168.16 399.069 119.609 349.088 113.054C318.444 109.035 290.067 119.416 268.423 140.909C257.169 152.083 256.412 154.24 243.668 141.207C226.96 124.12 194.964 107.751 170.342 112.223Z"/>
    <path d="M303.283 232.617C303.278 225.296 302.599 184.606 303.985 180.853C304.701 178.915 306.452 177.875 308.244 177.08C320.425 175.672 317.273 190.283 317.271 198.003C317.268 209.538 317.138 221.084 317.258 232.617C321.657 232.822 326.148 232.633 330.556 232.625L355.75 232.625C359.988 232.627 365.191 232.172 369.338 232.755C375.272 233.588 377.933 240.569 373.457 245.008C370.491 247.95 358.642 246.767 354.052 246.768L317.258 246.776C317.122 259.166 317.271 271.573 317.275 283.964C317.277 291.371 319.789 300.176 312.703 304.121C300.38 308.334 303.264 287.289 303.267 281.153L303.283 246.776C287.984 246.433 265.185 248.412 250.887 246.66C245.222 245.965 242.355 238.891 246.49 234.61C250.075 230.899 262.815 232.602 267.623 232.613L303.283 232.617Z"/>
  </g>
</svg>
