<svg width="47" height="42" viewBox="0 0 47 42" fill="none" xmlns="http://www.w3.org/2000/svg">
<path d="M30.1647 37.0889V34.4445H27.4476C24.5101 34.4445 22.1235 32.1218 22.1235 29.263C22.1235 26.4043 24.5102 24.0815 27.4476 24.0815H30.1739V21.4371C30.2106 18.5694 32.6341 16.2821 35.5713 16.3183C38.4629 16.354 40.7944 18.6232 40.8311 21.4371V24.0815H43.282C45.4942 20.3204 46.4948 16.5324 46.3572 12.4231C45.1179 -1.59421 29.944 -3.53271 23.1695 5.64245C8.84923 -11.6531 -19.3777 13.8438 20.3238 41.1543C21.9945 42.3067 24.2435 42.2799 25.8867 41.0828C27.4197 39.9661 28.8609 38.8672 30.2103 37.7952C30.1827 37.5629 30.1644 37.3306 30.1644 37.0894L30.1647 37.0889Z"/>
<path d="M38.9495 25.9127V21.4368C38.9495 19.5875 37.4073 18.0867 35.5071 18.0867H35.498C33.5978 18.0867 32.0556 19.5875 32.0556 21.4368V25.9037H27.4475C25.5473 25.9037 24.0051 27.4045 24.0051 29.2538C24.0051 31.1031 25.5381 32.613 27.4475 32.613H27.4566H32.0556V37.0888C32.0556 38.9381 33.5978 40.4389 35.498 40.4389H35.5071C37.4073 40.4389 38.9495 38.9381 38.9495 37.0888V32.613H43.5576C45.4578 32.613 47 31.1121 47 29.2628C47 27.4135 45.4578 25.9127 43.5576 25.9127H38.9495Z"/>
</svg>
