<?xml version="1.0" encoding="utf-8" ?>
<svg xmlns="http://www.w3.org/2000/svg" viewBox="50 50 410 410" xmlns:xlink="http://www.w3.org/1999/xlink" width="512" height="512"  stroke-width="15">
  <g fill="#210E00" stroke="#210E00">
    <path d="M256.167 131.599C261.946 124.022 275.749 109.655 282.775 103.135C298.912 88.1624 325.207 76.8656 347.43 77.7205C351.588 76.4901 357.376 77.5281 361.57 77.999C411.215 83.5717 453.284 126.891 455.444 177.155C456.891 210.801 444.047 234.474 422.345 258.085C418.036 252.856 413.038 248.067 408.324 243.201C429.172 224.384 438.624 195.401 434.211 167.771C427.15 123.559 381.7 92.0585 337.949 98.9654C314.858 102.611 303.111 111.108 287.924 127.082L262.814 153.617C260.549 155.997 258.099 158.328 256.167 160.987L229.96 132.996C209.57 111.344 192.728 97.3379 159.761 98.2462C94.2864 100.05 55.0324 170.588 89.6076 226.75C96.808 238.446 107.496 247.964 117.154 257.59L144.73 285.218C159.957 300.426 174.653 316.278 190.315 331.036C201.478 341.709 212.154 352.903 223.122 363.78L240.066 380.8C245.485 386.144 251.011 391.313 256.167 396.923C266.824 386.357 276.924 375.212 287.477 364.549C294.983 356.964 304.211 349.286 310.709 340.858C315.337 345.168 320.696 352.221 325.404 355.744C304.174 376.246 283.616 397.534 262.987 418.647C260.859 420.824 258.676 423.322 256.167 425.06C252.643 422.769 249.969 419.41 247.028 416.453L157.222 326.019C138.323 307.009 119.196 288.242 100.543 268.983C91.7003 259.853 82.082 251.298 74.9633 240.698C47.1744 199.321 51.1481 148.158 84.8967 111.11C123.184 69.0797 191.197 66.2822 232.193 106.087C240.565 114.216 247.599 123.718 256.167 131.599Z"/>
    <path d="M329.279 240.415C327.888 242.241 326.058 243.869 324.444 245.505L296.81 273.397C290.966 279.288 283.426 290.452 274.226 283.213C264.282 275.389 274.397 266.592 279.89 261.01L322.002 218.582C326.942 213.634 331.003 207.219 338.427 206.345C342.57 206.618 344.842 208.066 347.77 210.865C362.638 225.083 377.857 240.779 392.097 255.614C396.975 260.696 407.815 268.206 407.808 275.602C407.803 280.956 403.286 286.051 397.727 285.75C390.436 285.356 384.33 276.466 379.641 271.784C369.635 261.794 359.576 251.589 349.966 241.224L349.976 393.028C349.979 405.431 354.015 421.88 339.198 425.06C325.483 421.736 329.27 407.323 329.274 395.788L329.279 240.415Z"/>
  </g>
</svg>
