<svg width="47" height="43" viewBox="0 0 47 43" fill="none" xmlns="http://www.w3.org/2000/svg">
<path fill-rule="evenodd" clip-rule="evenodd" d="M34.3162 26.6653L41.6619 19.3922C42.1127 18.9459 42.1127 18.2222 41.6619 17.7759C41.2112 17.3296 40.4803 17.3296 40.0295 17.7759L34.6543 23.098V0C36.4817 0.0210064 38.2854 0.483578 39.9403 1.35845C41.7459 2.31293 43.3229 3.73099 44.5423 5.49642C47.9487 10.4485 47.8036 17.3239 44.1727 23.0134C37.5647 33.3688 24.4953 42.4764 23.9425 42.8586C23.8096 42.9505 23.6563 42.9992 23.5 42.9992C23.3436 42.9992 23.1903 42.9505 23.0575 42.8586C22.5047 42.4764 9.43521 33.3688 2.82721 23.0134C-0.803616 17.3239 -0.948711 10.4485 2.45797 5.49661C3.67937 3.73376 5.25679 2.31757 7.06177 1.36336C8.86676 0.409139 10.8483 -0.0561278 12.845 0.00544171C14.7911 0.0527706 16.6985 0.621131 18.4065 1.66263C20.1145 2.70413 21.573 4.18826 22.6591 5.98997C22.9505 6.46985 23.2316 6.96667 23.5 7.47622C23.7685 6.96667 24.0495 6.46985 24.3408 5.98997C25.427 4.18823 26.8855 2.70406 28.5935 1.66253C29.7674 0.946652 31.0355 0.4543 32.3457 0.201023V23.098L26.9705 17.7759C26.5197 17.3296 25.7888 17.3296 25.3381 17.7759C24.8873 18.2222 24.8873 18.9459 25.3381 19.3922L32.6838 26.6653C33.1346 27.1116 33.8654 27.1116 34.3162 26.6653Z"/>
</svg>
