<svg width="34" height="34" viewBox="0 0 34 34" fill="none" xmlns="http://www.w3.org/2000/svg">
<path fill-rule="evenodd" clip-rule="evenodd" d="M1.95381 32.243C3.17542 33.2498 4.78559 33.2137 5.8536 32.1454L32.1437 5.84972C33.9038 4.08919 32.6732 1.02906 30.145 1.02906C29.3932 1.02906 28.6794 1.32187 28.1481 1.85326L1.8562 28.1508C0.733959 29.2733 0.739399 31.0302 1.95381 32.243ZM23.2003 23.2019C25.6707 20.731 29.6734 20.731 32.1438 23.2019C36.1159 27.1748 33.2896 34 27.673 34C22.0544 34 19.2264 27.1748 23.2003 23.2019ZM1.8562 1.85314C4.32652 -0.617714 8.32925 -0.617714 10.7997 1.85314C14.7717 5.82605 11.9454 12.6513 6.32881 12.6513C0.710226 12.6513 -2.11591 5.82795 1.8562 1.85314Z"/>
</svg>
