<svg width="33" height="41" viewBox="0 0 33 41" fill="#210E00" xmlns="http://www.w3.org/2000/svg">
<path fill-rule="evenodd" clip-rule="evenodd" d="M31.383 22.2725V7.90333C31.383 7.54589 31.1211 7.24234 30.7699 7.19205C28.0739 6.80764 25.4526 6.01378 22.9919 4.84089C20.4971 3.6502 18.1987 2.08398 16.1767 0.192635C15.9038 -0.0642117 15.4794 -0.0642117 15.2066 0.192635C13.1844 2.0838 10.886 3.65006 8.39138 4.84089C5.9305 6.01378 3.30948 6.80767 0.613418 7.19205C0.26212 7.24235 0 7.5459 0 7.90333V22.2725C0 32.1226 14.7393 39.8318 15.3669 40.1551C15.5702 40.2611 15.8127 40.2611 16.016 40.1551C16.385 39.965 21.6314 37.2222 25.8928 32.9923H16.4964C14.4965 32.9923 12.8753 31.3711 12.8753 29.3712C12.8753 27.3713 14.4965 25.7501 16.4964 25.7501H30.7849C31.1665 24.6285 31.383 23.4662 31.383 22.2725Z"/>
<rect x="14.887" y="27.3595" width="17.7032" height="4.02346" rx="2.01173" fill="#210E00"/>
</svg>
