<svg width="33" height="43" viewBox="0 0 33 43" fill="#210E00" xmlns="http://www.w3.org/2000/svg">
<path d="M33 8.44655V23.8033C33 34.3305 17.5013 42.5696 16.8413 42.9151C16.6275 43.0283 16.3725 43.0283 16.1587 42.9151C15.4987 42.5695 0 34.3305 0 23.8033V8.44655C0 8.06455 0.275626 7.74014 0.645025 7.68638C3.48001 7.27558 6.23607 6.42712 8.82376 5.17361C11.4469 3.90094 13.8638 2.22703 15.9902 0.205876C16.277 -0.0686252 16.7233 -0.0686252 17.0102 0.205876C19.1364 2.22722 21.5533 3.90109 24.1766 5.17361C26.7641 6.42712 29.5204 7.27555 32.3553 7.68638C32.7247 7.74013 33 8.06454 33 8.44655Z"/>
</svg>
